<?xml version="1.0" encoding="utf-8" standalone="no"?>
<!DOCTYPE svg PUBLIC "-//W3C//DTD SVG 1.1//EN"
  "http://www.w3.org/Graphics/SVG/1.1/DTD/svg11.dtd">
<svg xmlns:xlink="http://www.w3.org/1999/xlink" width="360pt" height="1080pt" viewBox="0 0 360 1080" xmlns="http://www.w3.org/2000/svg" version="1.1">
 <metadata>
  <rdf:RDF xmlns:dc="http://purl.org/dc/elements/1.1/" xmlns:cc="http://creativecommons.org/ns#" xmlns:rdf="http://www.w3.org/1999/02/22-rdf-syntax-ns#">
   <cc:Work>
    <dc:type rdf:resource="http://purl.org/dc/dcmitype/StillImage"/>
    <dc:date>2023-01-18T18:03:04.079748</dc:date>
    <dc:format>image/svg+xml</dc:format>
    <dc:creator>
     <cc:Agent>
      <dc:title>Matplotlib v3.5.2, https://matplotlib.org/</dc:title>
     </cc:Agent>
    </dc:creator>
   </cc:Work>
  </rdf:RDF>
 </metadata>
 <defs>
  <style type="text/css">*{stroke-linejoin: round; stroke-linecap: butt}</style>
 </defs>
 <g id="figure_1">
  <g id="patch_1">
   <path d="M 0 1080 
L 360 1080 
L 360 0 
L 0 0 
z
" style="fill: #ffffff"/>
  </g>
  <g id="axes_1">
   <g id="patch_2">
    <path d="M 72 775.8 
L 360 775.8 
L 360 574.2 
L 72 574.2 
z
" style="fill: #ffffff"/>
   </g>
   <g id="matplotlib.axis_1">
    <g id="xtick_1">
     <g id="line2d_1">
      <path d="M 91.8388 775.8 
L 91.8388 574.2 
" clip-path="url(#p8f51cd0e9b)" style="fill: none; stroke: #e6e6e6; stroke-width: 0.8; stroke-linecap: square"/>
     </g>
     <g id="line2d_2">
      <defs>
       <path id="md81d0f3ea3" d="M 0 0 
L 0 3.5 
" style="stroke: #555555; stroke-width: 0.8"/>
      </defs>
      <g>
       <use xlink:href="#md81d0f3ea3" x="91.8388" y="775.8" style="fill: #555555; stroke: #555555; stroke-width: 0.8"/>
      </g>
     </g>
    </g>
    <g id="xtick_2">
     <g id="line2d_3">
      <path d="M 118.830366 775.8 
L 118.830366 574.2 
" clip-path="url(#p8f51cd0e9b)" style="fill: none; stroke: #e6e6e6; stroke-width: 0.8; stroke-linecap: square"/>
     </g>
     <g id="line2d_4">
      <g>
       <use xlink:href="#md81d0f3ea3" x="118.830366" y="775.8" style="fill: #555555; stroke: #555555; stroke-width: 0.8"/>
      </g>
     </g>
    </g>
    <g id="xtick_3">
     <g id="line2d_5">
      <path d="M 145.821931 775.8 
L 145.821931 574.2 
" clip-path="url(#p8f51cd0e9b)" style="fill: none; stroke: #e6e6e6; stroke-width: 0.8; stroke-linecap: square"/>
     </g>
     <g id="line2d_6">
      <g>
       <use xlink:href="#md81d0f3ea3" x="145.821931" y="775.8" style="fill: #555555; stroke: #555555; stroke-width: 0.8"/>
      </g>
     </g>
    </g>
    <g id="xtick_4">
     <g id="line2d_7">
      <path d="M 172.813496 775.8 
L 172.813496 574.2 
" clip-path="url(#p8f51cd0e9b)" style="fill: none; stroke: #e6e6e6; stroke-width: 0.8; stroke-linecap: square"/>
     </g>
     <g id="line2d_8">
      <g>
       <use xlink:href="#md81d0f3ea3" x="172.813496" y="775.8" style="fill: #555555; stroke: #555555; stroke-width: 0.8"/>
      </g>
     </g>
    </g>
    <g id="xtick_5">
     <g id="line2d_9">
      <path d="M 199.805061 775.8 
L 199.805061 574.2 
" clip-path="url(#p8f51cd0e9b)" style="fill: none; stroke: #e6e6e6; stroke-width: 0.8; stroke-linecap: square"/>
     </g>
     <g id="line2d_10">
      <g>
       <use xlink:href="#md81d0f3ea3" x="199.805061" y="775.8" style="fill: #555555; stroke: #555555; stroke-width: 0.8"/>
      </g>
     </g>
    </g>
    <g id="xtick_6">
     <g id="line2d_11">
      <path d="M 226.796626 775.8 
L 226.796626 574.2 
" clip-path="url(#p8f51cd0e9b)" style="fill: none; stroke: #e6e6e6; stroke-width: 0.8; stroke-linecap: square"/>
     </g>
     <g id="line2d_12">
      <g>
       <use xlink:href="#md81d0f3ea3" x="226.796626" y="775.8" style="fill: #555555; stroke: #555555; stroke-width: 0.8"/>
      </g>
     </g>
    </g>
    <g id="xtick_7">
     <g id="line2d_13">
      <path d="M 253.788191 775.8 
L 253.788191 574.2 
" clip-path="url(#p8f51cd0e9b)" style="fill: none; stroke: #e6e6e6; stroke-width: 0.8; stroke-linecap: square"/>
     </g>
     <g id="line2d_14">
      <g>
       <use xlink:href="#md81d0f3ea3" x="253.788191" y="775.8" style="fill: #555555; stroke: #555555; stroke-width: 0.8"/>
      </g>
     </g>
    </g>
    <g id="xtick_8">
     <g id="line2d_15">
      <path d="M 280.779756 775.8 
L 280.779756 574.2 
" clip-path="url(#p8f51cd0e9b)" style="fill: none; stroke: #e6e6e6; stroke-width: 0.8; stroke-linecap: square"/>
     </g>
     <g id="line2d_16">
      <g>
       <use xlink:href="#md81d0f3ea3" x="280.779756" y="775.8" style="fill: #555555; stroke: #555555; stroke-width: 0.8"/>
      </g>
     </g>
    </g>
    <g id="xtick_9">
     <g id="line2d_17">
      <path d="M 307.771321 775.8 
L 307.771321 574.2 
" clip-path="url(#p8f51cd0e9b)" style="fill: none; stroke: #e6e6e6; stroke-width: 0.8; stroke-linecap: square"/>
     </g>
     <g id="line2d_18">
      <g>
       <use xlink:href="#md81d0f3ea3" x="307.771321" y="775.8" style="fill: #555555; stroke: #555555; stroke-width: 0.8"/>
      </g>
     </g>
    </g>
    <g id="xtick_10">
     <g id="line2d_19">
      <path d="M 334.762887 775.8 
L 334.762887 574.2 
" clip-path="url(#p8f51cd0e9b)" style="fill: none; stroke: #e6e6e6; stroke-width: 0.8; stroke-linecap: square"/>
     </g>
     <g id="line2d_20">
      <g>
       <use xlink:href="#md81d0f3ea3" x="334.762887" y="775.8" style="fill: #555555; stroke: #555555; stroke-width: 0.8"/>
      </g>
     </g>
    </g>
   </g>
   <g id="matplotlib.axis_2">
    <g id="ytick_1">
     <g id="line2d_21">
      <path d="M 72 741.194173 
L 360 741.194173 
" clip-path="url(#p8f51cd0e9b)" style="fill: none; stroke: #e6e6e6; stroke-width: 0.8; stroke-linecap: square"/>
     </g>
     <g id="line2d_22">
      <defs>
       <path id="mf579b93b2f" d="M 0 0 
L -3.5 0 
" style="stroke: #555555; stroke-width: 0.8"/>
      </defs>
      <g>
       <use xlink:href="#mf579b93b2f" x="72" y="741.194173" style="fill: #555555; stroke: #555555; stroke-width: 0.8"/>
      </g>
     </g>
     <g id="text_1">
      <!-- 0.2 -->
      <g style="fill: #555555" transform="translate(48.32 745.488861)scale(0.12 -0.12)">
       <defs>
        <path id="ArialMT-30" d="M 266 2259 
Q 266 3072 433 3567 
Q 600 4063 929 4331 
Q 1259 4600 1759 4600 
Q 2128 4600 2406 4451 
Q 2684 4303 2865 4023 
Q 3047 3744 3150 3342 
Q 3253 2941 3253 2259 
Q 3253 1453 3087 958 
Q 2922 463 2592 192 
Q 2263 -78 1759 -78 
Q 1097 -78 719 397 
Q 266 969 266 2259 
z
M 844 2259 
Q 844 1131 1108 757 
Q 1372 384 1759 384 
Q 2147 384 2411 759 
Q 2675 1134 2675 2259 
Q 2675 3391 2411 3762 
Q 2147 4134 1753 4134 
Q 1366 4134 1134 3806 
Q 844 3388 844 2259 
z
" transform="scale(0.015625)"/>
        <path id="ArialMT-2e" d="M 581 0 
L 581 641 
L 1222 641 
L 1222 0 
L 581 0 
z
" transform="scale(0.015625)"/>
        <path id="ArialMT-32" d="M 3222 541 
L 3222 0 
L 194 0 
Q 188 203 259 391 
Q 375 700 629 1000 
Q 884 1300 1366 1694 
Q 2113 2306 2375 2664 
Q 2638 3022 2638 3341 
Q 2638 3675 2398 3904 
Q 2159 4134 1775 4134 
Q 1369 4134 1125 3890 
Q 881 3647 878 3216 
L 300 3275 
Q 359 3922 746 4261 
Q 1134 4600 1788 4600 
Q 2447 4600 2831 4234 
Q 3216 3869 3216 3328 
Q 3216 3053 3103 2787 
Q 2991 2522 2730 2228 
Q 2469 1934 1863 1422 
Q 1356 997 1212 845 
Q 1069 694 975 541 
L 3222 541 
z
" transform="scale(0.015625)"/>
       </defs>
       <use xlink:href="#ArialMT-30"/>
       <use xlink:href="#ArialMT-2e" x="55.615234"/>
       <use xlink:href="#ArialMT-32" x="83.398438"/>
      </g>
     </g>
    </g>
    <g id="ytick_2">
     <g id="line2d_23">
      <path d="M 72 701.736539 
L 360 701.736539 
" clip-path="url(#p8f51cd0e9b)" style="fill: none; stroke: #e6e6e6; stroke-width: 0.8; stroke-linecap: square"/>
     </g>
     <g id="line2d_24">
      <g>
       <use xlink:href="#mf579b93b2f" x="72" y="701.736539" style="fill: #555555; stroke: #555555; stroke-width: 0.8"/>
      </g>
     </g>
     <g id="text_2">
      <!-- 0.4 -->
      <g style="fill: #555555" transform="translate(48.32 706.031226)scale(0.12 -0.12)">
       <defs>
        <path id="ArialMT-34" d="M 2069 0 
L 2069 1097 
L 81 1097 
L 81 1613 
L 2172 4581 
L 2631 4581 
L 2631 1613 
L 3250 1613 
L 3250 1097 
L 2631 1097 
L 2631 0 
L 2069 0 
z
M 2069 1613 
L 2069 3678 
L 634 1613 
L 2069 1613 
z
" transform="scale(0.015625)"/>
       </defs>
       <use xlink:href="#ArialMT-30"/>
       <use xlink:href="#ArialMT-2e" x="55.615234"/>
       <use xlink:href="#ArialMT-34" x="83.398438"/>
      </g>
     </g>
    </g>
    <g id="ytick_3">
     <g id="line2d_25">
      <path d="M 72 662.278905 
L 360 662.278905 
" clip-path="url(#p8f51cd0e9b)" style="fill: none; stroke: #e6e6e6; stroke-width: 0.8; stroke-linecap: square"/>
     </g>
     <g id="line2d_26">
      <g>
       <use xlink:href="#mf579b93b2f" x="72" y="662.278905" style="fill: #555555; stroke: #555555; stroke-width: 0.8"/>
      </g>
     </g>
     <g id="text_3">
      <!-- 0.6 -->
      <g style="fill: #555555" transform="translate(48.32 666.573592)scale(0.12 -0.12)">
       <defs>
        <path id="ArialMT-36" d="M 3184 3459 
L 2625 3416 
Q 2550 3747 2413 3897 
Q 2184 4138 1850 4138 
Q 1581 4138 1378 3988 
Q 1113 3794 959 3422 
Q 806 3050 800 2363 
Q 1003 2672 1297 2822 
Q 1591 2972 1913 2972 
Q 2475 2972 2870 2558 
Q 3266 2144 3266 1488 
Q 3266 1056 3080 686 
Q 2894 316 2569 119 
Q 2244 -78 1831 -78 
Q 1128 -78 684 439 
Q 241 956 241 2144 
Q 241 3472 731 4075 
Q 1159 4600 1884 4600 
Q 2425 4600 2770 4297 
Q 3116 3994 3184 3459 
z
M 888 1484 
Q 888 1194 1011 928 
Q 1134 663 1356 523 
Q 1578 384 1822 384 
Q 2178 384 2434 671 
Q 2691 959 2691 1453 
Q 2691 1928 2437 2201 
Q 2184 2475 1800 2475 
Q 1419 2475 1153 2201 
Q 888 1928 888 1484 
z
" transform="scale(0.015625)"/>
       </defs>
       <use xlink:href="#ArialMT-30"/>
       <use xlink:href="#ArialMT-2e" x="55.615234"/>
       <use xlink:href="#ArialMT-36" x="83.398438"/>
      </g>
     </g>
    </g>
    <g id="ytick_4">
     <g id="line2d_27">
      <path d="M 72 622.821271 
L 360 622.821271 
" clip-path="url(#p8f51cd0e9b)" style="fill: none; stroke: #e6e6e6; stroke-width: 0.8; stroke-linecap: square"/>
     </g>
     <g id="line2d_28">
      <g>
       <use xlink:href="#mf579b93b2f" x="72" y="622.821271" style="fill: #555555; stroke: #555555; stroke-width: 0.8"/>
      </g>
     </g>
     <g id="text_4">
      <!-- 0.8 -->
      <g style="fill: #555555" transform="translate(48.32 627.115958)scale(0.12 -0.12)">
       <defs>
        <path id="ArialMT-38" d="M 1131 2484 
Q 781 2613 612 2850 
Q 444 3088 444 3419 
Q 444 3919 803 4259 
Q 1163 4600 1759 4600 
Q 2359 4600 2725 4251 
Q 3091 3903 3091 3403 
Q 3091 3084 2923 2848 
Q 2756 2613 2416 2484 
Q 2838 2347 3058 2040 
Q 3278 1734 3278 1309 
Q 3278 722 2862 322 
Q 2447 -78 1769 -78 
Q 1091 -78 675 323 
Q 259 725 259 1325 
Q 259 1772 486 2073 
Q 713 2375 1131 2484 
z
M 1019 3438 
Q 1019 3113 1228 2906 
Q 1438 2700 1772 2700 
Q 2097 2700 2305 2904 
Q 2513 3109 2513 3406 
Q 2513 3716 2298 3927 
Q 2084 4138 1766 4138 
Q 1444 4138 1231 3931 
Q 1019 3725 1019 3438 
z
M 838 1322 
Q 838 1081 952 856 
Q 1066 631 1291 507 
Q 1516 384 1775 384 
Q 2178 384 2440 643 
Q 2703 903 2703 1303 
Q 2703 1709 2433 1975 
Q 2163 2241 1756 2241 
Q 1359 2241 1098 1978 
Q 838 1716 838 1322 
z
" transform="scale(0.015625)"/>
       </defs>
       <use xlink:href="#ArialMT-30"/>
       <use xlink:href="#ArialMT-2e" x="55.615234"/>
       <use xlink:href="#ArialMT-38" x="83.398438"/>
      </g>
     </g>
    </g>
    <g id="ytick_5">
     <g id="line2d_29">
      <path d="M 72 583.363636 
L 360 583.363636 
" clip-path="url(#p8f51cd0e9b)" style="fill: none; stroke: #e6e6e6; stroke-width: 0.8; stroke-linecap: square"/>
     </g>
     <g id="line2d_30">
      <g>
       <use xlink:href="#mf579b93b2f" x="72" y="583.363636" style="fill: #555555; stroke: #555555; stroke-width: 0.8"/>
      </g>
     </g>
     <g id="text_5">
      <!-- 1.0 -->
      <g style="fill: #555555" transform="translate(48.32 587.658324)scale(0.12 -0.12)">
       <defs>
        <path id="ArialMT-31" d="M 2384 0 
L 1822 0 
L 1822 3584 
Q 1619 3391 1289 3197 
Q 959 3003 697 2906 
L 697 3450 
Q 1169 3672 1522 3987 
Q 1875 4303 2022 4600 
L 2384 4600 
L 2384 0 
z
" transform="scale(0.015625)"/>
       </defs>
       <use xlink:href="#ArialMT-31"/>
       <use xlink:href="#ArialMT-2e" x="55.615234"/>
       <use xlink:href="#ArialMT-30" x="83.398438"/>
      </g>
     </g>
    </g>
    <g id="text_6">
     <!-- Precision -->
     <g style="fill: #555555" transform="translate(41.935 699.675938)rotate(-90)scale(0.12 -0.12)">
      <defs>
       <path id="ArialMT-50" d="M 494 0 
L 494 4581 
L 2222 4581 
Q 2678 4581 2919 4538 
Q 3256 4481 3484 4323 
Q 3713 4166 3852 3881 
Q 3991 3597 3991 3256 
Q 3991 2672 3619 2267 
Q 3247 1863 2275 1863 
L 1100 1863 
L 1100 0 
L 494 0 
z
M 1100 2403 
L 2284 2403 
Q 2872 2403 3119 2622 
Q 3366 2841 3366 3238 
Q 3366 3525 3220 3729 
Q 3075 3934 2838 4000 
Q 2684 4041 2272 4041 
L 1100 4041 
L 1100 2403 
z
" transform="scale(0.015625)"/>
       <path id="ArialMT-72" d="M 416 0 
L 416 3319 
L 922 3319 
L 922 2816 
Q 1116 3169 1280 3281 
Q 1444 3394 1641 3394 
Q 1925 3394 2219 3213 
L 2025 2691 
Q 1819 2813 1613 2813 
Q 1428 2813 1281 2702 
Q 1134 2591 1072 2394 
Q 978 2094 978 1738 
L 978 0 
L 416 0 
z
" transform="scale(0.015625)"/>
       <path id="ArialMT-65" d="M 2694 1069 
L 3275 997 
Q 3138 488 2766 206 
Q 2394 -75 1816 -75 
Q 1088 -75 661 373 
Q 234 822 234 1631 
Q 234 2469 665 2931 
Q 1097 3394 1784 3394 
Q 2450 3394 2872 2941 
Q 3294 2488 3294 1666 
Q 3294 1616 3291 1516 
L 816 1516 
Q 847 969 1125 678 
Q 1403 388 1819 388 
Q 2128 388 2347 550 
Q 2566 713 2694 1069 
z
M 847 1978 
L 2700 1978 
Q 2663 2397 2488 2606 
Q 2219 2931 1791 2931 
Q 1403 2931 1139 2672 
Q 875 2413 847 1978 
z
" transform="scale(0.015625)"/>
       <path id="ArialMT-63" d="M 2588 1216 
L 3141 1144 
Q 3050 572 2676 248 
Q 2303 -75 1759 -75 
Q 1078 -75 664 370 
Q 250 816 250 1647 
Q 250 2184 428 2587 
Q 606 2991 970 3192 
Q 1334 3394 1763 3394 
Q 2303 3394 2647 3120 
Q 2991 2847 3088 2344 
L 2541 2259 
Q 2463 2594 2264 2762 
Q 2066 2931 1784 2931 
Q 1359 2931 1093 2626 
Q 828 2322 828 1663 
Q 828 994 1084 691 
Q 1341 388 1753 388 
Q 2084 388 2306 591 
Q 2528 794 2588 1216 
z
" transform="scale(0.015625)"/>
       <path id="ArialMT-69" d="M 425 3934 
L 425 4581 
L 988 4581 
L 988 3934 
L 425 3934 
z
M 425 0 
L 425 3319 
L 988 3319 
L 988 0 
L 425 0 
z
" transform="scale(0.015625)"/>
       <path id="ArialMT-73" d="M 197 991 
L 753 1078 
Q 800 744 1014 566 
Q 1228 388 1613 388 
Q 2000 388 2187 545 
Q 2375 703 2375 916 
Q 2375 1106 2209 1216 
Q 2094 1291 1634 1406 
Q 1016 1563 777 1677 
Q 538 1791 414 1992 
Q 291 2194 291 2438 
Q 291 2659 392 2848 
Q 494 3038 669 3163 
Q 800 3259 1026 3326 
Q 1253 3394 1513 3394 
Q 1903 3394 2198 3281 
Q 2494 3169 2634 2976 
Q 2775 2784 2828 2463 
L 2278 2388 
Q 2241 2644 2061 2787 
Q 1881 2931 1553 2931 
Q 1166 2931 1000 2803 
Q 834 2675 834 2503 
Q 834 2394 903 2306 
Q 972 2216 1119 2156 
Q 1203 2125 1616 2013 
Q 2213 1853 2448 1751 
Q 2684 1650 2818 1456 
Q 2953 1263 2953 975 
Q 2953 694 2789 445 
Q 2625 197 2315 61 
Q 2006 -75 1616 -75 
Q 969 -75 630 194 
Q 291 463 197 991 
z
" transform="scale(0.015625)"/>
       <path id="ArialMT-6f" d="M 213 1659 
Q 213 2581 725 3025 
Q 1153 3394 1769 3394 
Q 2453 3394 2887 2945 
Q 3322 2497 3322 1706 
Q 3322 1066 3130 698 
Q 2938 331 2570 128 
Q 2203 -75 1769 -75 
Q 1072 -75 642 372 
Q 213 819 213 1659 
z
M 791 1659 
Q 791 1022 1069 705 
Q 1347 388 1769 388 
Q 2188 388 2466 706 
Q 2744 1025 2744 1678 
Q 2744 2294 2464 2611 
Q 2184 2928 1769 2928 
Q 1347 2928 1069 2612 
Q 791 2297 791 1659 
z
" transform="scale(0.015625)"/>
       <path id="ArialMT-6e" d="M 422 0 
L 422 3319 
L 928 3319 
L 928 2847 
Q 1294 3394 1984 3394 
Q 2284 3394 2536 3286 
Q 2788 3178 2913 3003 
Q 3038 2828 3088 2588 
Q 3119 2431 3119 2041 
L 3119 0 
L 2556 0 
L 2556 2019 
Q 2556 2363 2490 2533 
Q 2425 2703 2258 2804 
Q 2091 2906 1866 2906 
Q 1506 2906 1245 2678 
Q 984 2450 984 1813 
L 984 0 
L 422 0 
z
" transform="scale(0.015625)"/>
      </defs>
      <use xlink:href="#ArialMT-50"/>
      <use xlink:href="#ArialMT-72" x="66.699219"/>
      <use xlink:href="#ArialMT-65" x="100"/>
      <use xlink:href="#ArialMT-63" x="155.615234"/>
      <use xlink:href="#ArialMT-69" x="205.615234"/>
      <use xlink:href="#ArialMT-73" x="227.832031"/>
      <use xlink:href="#ArialMT-69" x="277.832031"/>
      <use xlink:href="#ArialMT-6f" x="300.048828"/>
      <use xlink:href="#ArialMT-6e" x="355.664062"/>
     </g>
    </g>
   </g>
   <g id="line2d_31">
    <path d="M 91.8388 583.363636 
L 118.830366 603.092453 
L 145.821931 622.821271 
L 172.813496 642.550088 
L 199.805061 662.278905 
L 226.796626 682.007722 
L 253.788191 701.736539 
L 280.779756 721.465356 
L 307.771321 741.194173 
L 334.762887 760.92299 
" clip-path="url(#p8f51cd0e9b)" style="fill: none; stroke-dasharray: 3.7,1.6; stroke-dashoffset: 0; stroke: #000000; stroke-opacity: 0.5"/>
   </g>
   <g id="line2d_32">
    <path d="M 91.8388 624.608293 
L 118.830366 678.015691 
L 145.821931 693.136517 
L 172.813496 710.87217 
L 199.805061 732.154141 
L 226.796626 745.610419 
L 253.788191 756.752785 
L 280.779756 762.518234 
L 307.771321 765.162728 
L 334.762887 766.636364 
" clip-path="url(#p8f51cd0e9b)" style="fill: none; stroke: #168aad; stroke-width: 2; stroke-linecap: square"/>
    <defs>
     <path id="mf3264da690" d="M 0 1.5 
C 0.397805 1.5 0.77937 1.341951 1.06066 1.06066 
C 1.341951 0.77937 1.5 0.397805 1.5 0 
C 1.5 -0.397805 1.341951 -0.77937 1.06066 -1.06066 
C 0.77937 -1.341951 0.397805 -1.5 0 -1.5 
C -0.397805 -1.5 -0.77937 -1.341951 -1.06066 -1.06066 
C -1.341951 -0.77937 -1.5 -0.397805 -1.5 0 
C -1.5 0.397805 -1.341951 0.77937 -1.06066 1.06066 
C -0.77937 1.341951 -0.397805 1.5 0 1.5 
z
" style="stroke: #168aad"/>
    </defs>
    <g clip-path="url(#p8f51cd0e9b)">
     <use xlink:href="#mf3264da690" x="91.8388" y="624.608293" style="fill: #168aad; stroke: #168aad"/>
     <use xlink:href="#mf3264da690" x="118.830366" y="678.015691" style="fill: #168aad; stroke: #168aad"/>
     <use xlink:href="#mf3264da690" x="145.821931" y="693.136517" style="fill: #168aad; stroke: #168aad"/>
     <use xlink:href="#mf3264da690" x="172.813496" y="710.87217" style="fill: #168aad; stroke: #168aad"/>
     <use xlink:href="#mf3264da690" x="199.805061" y="732.154141" style="fill: #168aad; stroke: #168aad"/>
     <use xlink:href="#mf3264da690" x="226.796626" y="745.610419" style="fill: #168aad; stroke: #168aad"/>
     <use xlink:href="#mf3264da690" x="253.788191" y="756.752785" style="fill: #168aad; stroke: #168aad"/>
     <use xlink:href="#mf3264da690" x="280.779756" y="762.518234" style="fill: #168aad; stroke: #168aad"/>
     <use xlink:href="#mf3264da690" x="307.771321" y="765.162728" style="fill: #168aad; stroke: #168aad"/>
     <use xlink:href="#mf3264da690" x="334.762887" y="766.636364" style="fill: #168aad; stroke: #168aad"/>
    </g>
   </g>
   <g id="line2d_33">
    <path d="M 91.8388 672.273708 
L 118.830366 668.699444 
L 145.821931 664.569206 
L 172.813496 660.52815 
L 199.805061 658.358575 
L 226.796626 650.215513 
L 253.788191 642.197997 
L 280.779756 639.22956 
L 307.771321 648.805986 
L 334.762887 674.171024 
" clip-path="url(#p8f51cd0e9b)" style="fill: none; stroke: #498467; stroke-width: 2; stroke-linecap: square"/>
    <defs>
     <path id="m02f715c614" d="M 0 1.5 
C 0.397805 1.5 0.77937 1.341951 1.06066 1.06066 
C 1.341951 0.77937 1.5 0.397805 1.5 0 
C 1.5 -0.397805 1.341951 -0.77937 1.06066 -1.06066 
C 0.77937 -1.341951 0.397805 -1.5 0 -1.5 
C -0.397805 -1.5 -0.77937 -1.341951 -1.06066 -1.06066 
C -1.341951 -0.77937 -1.5 -0.397805 -1.5 0 
C -1.5 0.397805 -1.341951 0.77937 -1.06066 1.06066 
C -0.77937 1.341951 -0.397805 1.5 0 1.5 
z
" style="stroke: #498467"/>
    </defs>
    <g clip-path="url(#p8f51cd0e9b)">
     <use xlink:href="#m02f715c614" x="91.8388" y="672.273708" style="fill: #498467; stroke: #498467"/>
     <use xlink:href="#m02f715c614" x="118.830366" y="668.699444" style="fill: #498467; stroke: #498467"/>
     <use xlink:href="#m02f715c614" x="145.821931" y="664.569206" style="fill: #498467; stroke: #498467"/>
     <use xlink:href="#m02f715c614" x="172.813496" y="660.52815" style="fill: #498467; stroke: #498467"/>
     <use xlink:href="#m02f715c614" x="199.805061" y="658.358575" style="fill: #498467; stroke: #498467"/>
     <use xlink:href="#m02f715c614" x="226.796626" y="650.215513" style="fill: #498467; stroke: #498467"/>
     <use xlink:href="#m02f715c614" x="253.788191" y="642.197997" style="fill: #498467; stroke: #498467"/>
     <use xlink:href="#m02f715c614" x="280.779756" y="639.22956" style="fill: #498467; stroke: #498467"/>
     <use xlink:href="#m02f715c614" x="307.771321" y="648.805986" style="fill: #498467; stroke: #498467"/>
     <use xlink:href="#m02f715c614" x="334.762887" y="674.171024" style="fill: #498467; stroke: #498467"/>
    </g>
   </g>
   <g id="line2d_34">
    <path d="M 91.8388 664.746156 
L 118.830366 666.489266 
L 145.821931 660.366497 
L 172.813496 648.252898 
L 199.805061 642.162338 
L 226.796626 641.540244 
L 253.788191 643.16466 
L 280.779756 646.271365 
L 307.771321 646.931864 
L 334.762887 647.992405 
" clip-path="url(#p8f51cd0e9b)" style="fill: none; stroke: #3a4f7a; stroke-width: 2; stroke-linecap: square"/>
    <defs>
     <path id="m0ad376a77f" d="M 0 1.5 
C 0.397805 1.5 0.77937 1.341951 1.06066 1.06066 
C 1.341951 0.77937 1.5 0.397805 1.5 0 
C 1.5 -0.397805 1.341951 -0.77937 1.06066 -1.06066 
C 0.77937 -1.341951 0.397805 -1.5 0 -1.5 
C -0.397805 -1.5 -0.77937 -1.341951 -1.06066 -1.06066 
C -1.341951 -0.77937 -1.5 -0.397805 -1.5 0 
C -1.5 0.397805 -1.341951 0.77937 -1.06066 1.06066 
C -0.77937 1.341951 -0.397805 1.5 0 1.5 
z
" style="stroke: #3a4f7a"/>
    </defs>
    <g clip-path="url(#p8f51cd0e9b)">
     <use xlink:href="#m0ad376a77f" x="91.8388" y="664.746156" style="fill: #3a4f7a; stroke: #3a4f7a"/>
     <use xlink:href="#m0ad376a77f" x="118.830366" y="666.489266" style="fill: #3a4f7a; stroke: #3a4f7a"/>
     <use xlink:href="#m0ad376a77f" x="145.821931" y="660.366497" style="fill: #3a4f7a; stroke: #3a4f7a"/>
     <use xlink:href="#m0ad376a77f" x="172.813496" y="648.252898" style="fill: #3a4f7a; stroke: #3a4f7a"/>
     <use xlink:href="#m0ad376a77f" x="199.805061" y="642.162338" style="fill: #3a4f7a; stroke: #3a4f7a"/>
     <use xlink:href="#m0ad376a77f" x="226.796626" y="641.540244" style="fill: #3a4f7a; stroke: #3a4f7a"/>
     <use xlink:href="#m0ad376a77f" x="253.788191" y="643.16466" style="fill: #3a4f7a; stroke: #3a4f7a"/>
     <use xlink:href="#m0ad376a77f" x="280.779756" y="646.271365" style="fill: #3a4f7a; stroke: #3a4f7a"/>
     <use xlink:href="#m0ad376a77f" x="307.771321" y="646.931864" style="fill: #3a4f7a; stroke: #3a4f7a"/>
     <use xlink:href="#m0ad376a77f" x="334.762887" y="647.992405" style="fill: #3a4f7a; stroke: #3a4f7a"/>
    </g>
   </g>
   <g id="line2d_35">
    <path d="M 91.8388 761.498391 
L 118.830366 663.27309 
L 145.821931 636.588082 
L 172.813496 643.57043 
L 199.805061 648.349561 
L 226.796626 654.850076 
L 253.788191 660.432639 
L 280.779756 665.425299 
L 307.771321 668.77193 
L 334.762887 672.052723 
" clip-path="url(#p8f51cd0e9b)" style="fill: none; stroke: #b08bbb; stroke-width: 2; stroke-linecap: square"/>
    <defs>
     <path id="m0fbdda2bcf" d="M 0 1.5 
C 0.397805 1.5 0.77937 1.341951 1.06066 1.06066 
C 1.341951 0.77937 1.5 0.397805 1.5 0 
C 1.5 -0.397805 1.341951 -0.77937 1.06066 -1.06066 
C 0.77937 -1.341951 0.397805 -1.5 0 -1.5 
C -0.397805 -1.5 -0.77937 -1.341951 -1.06066 -1.06066 
C -1.341951 -0.77937 -1.5 -0.397805 -1.5 0 
C -1.5 0.397805 -1.341951 0.77937 -1.06066 1.06066 
C -0.77937 1.341951 -0.397805 1.5 0 1.5 
z
" style="stroke: #b08bbb"/>
    </defs>
    <g clip-path="url(#p8f51cd0e9b)">
     <use xlink:href="#m0fbdda2bcf" x="91.8388" y="761.498391" style="fill: #b08bbb; stroke: #b08bbb"/>
     <use xlink:href="#m0fbdda2bcf" x="118.830366" y="663.27309" style="fill: #b08bbb; stroke: #b08bbb"/>
     <use xlink:href="#m0fbdda2bcf" x="145.821931" y="636.588082" style="fill: #b08bbb; stroke: #b08bbb"/>
     <use xlink:href="#m0fbdda2bcf" x="172.813496" y="643.57043" style="fill: #b08bbb; stroke: #b08bbb"/>
     <use xlink:href="#m0fbdda2bcf" x="199.805061" y="648.349561" style="fill: #b08bbb; stroke: #b08bbb"/>
     <use xlink:href="#m0fbdda2bcf" x="226.796626" y="654.850076" style="fill: #b08bbb; stroke: #b08bbb"/>
     <use xlink:href="#m0fbdda2bcf" x="253.788191" y="660.432639" style="fill: #b08bbb; stroke: #b08bbb"/>
     <use xlink:href="#m0fbdda2bcf" x="280.779756" y="665.425299" style="fill: #b08bbb; stroke: #b08bbb"/>
     <use xlink:href="#m0fbdda2bcf" x="307.771321" y="668.77193" style="fill: #b08bbb; stroke: #b08bbb"/>
     <use xlink:href="#m0fbdda2bcf" x="334.762887" y="672.052723" style="fill: #b08bbb; stroke: #b08bbb"/>
    </g>
   </g>
   <g id="line2d_36">
    <path d="M 91.8388 645.635866 
L 118.830366 653.149695 
L 145.821931 655.712086 
L 172.813496 654.030434 
L 199.805061 650.739433 
L 226.796626 647.643366 
L 253.788191 645.156704 
L 280.779756 643.910937 
L 307.771321 643.861538 
L 334.762887 640.423999 
" clip-path="url(#p8f51cd0e9b)" style="fill: none; stroke: #8ecae6; stroke-width: 2; stroke-linecap: square"/>
    <defs>
     <path id="m30dc52ba89" d="M 0 1.5 
C 0.397805 1.5 0.77937 1.341951 1.06066 1.06066 
C 1.341951 0.77937 1.5 0.397805 1.5 0 
C 1.5 -0.397805 1.341951 -0.77937 1.06066 -1.06066 
C 0.77937 -1.341951 0.397805 -1.5 0 -1.5 
C -0.397805 -1.5 -0.77937 -1.341951 -1.06066 -1.06066 
C -1.341951 -0.77937 -1.5 -0.397805 -1.5 0 
C -1.5 0.397805 -1.341951 0.77937 -1.06066 1.06066 
C -0.77937 1.341951 -0.397805 1.5 0 1.5 
z
" style="stroke: #8ecae6"/>
    </defs>
    <g clip-path="url(#p8f51cd0e9b)">
     <use xlink:href="#m30dc52ba89" x="91.8388" y="645.635866" style="fill: #8ecae6; stroke: #8ecae6"/>
     <use xlink:href="#m30dc52ba89" x="118.830366" y="653.149695" style="fill: #8ecae6; stroke: #8ecae6"/>
     <use xlink:href="#m30dc52ba89" x="145.821931" y="655.712086" style="fill: #8ecae6; stroke: #8ecae6"/>
     <use xlink:href="#m30dc52ba89" x="172.813496" y="654.030434" style="fill: #8ecae6; stroke: #8ecae6"/>
     <use xlink:href="#m30dc52ba89" x="199.805061" y="650.739433" style="fill: #8ecae6; stroke: #8ecae6"/>
     <use xlink:href="#m30dc52ba89" x="226.796626" y="647.643366" style="fill: #8ecae6; stroke: #8ecae6"/>
     <use xlink:href="#m30dc52ba89" x="253.788191" y="645.156704" style="fill: #8ecae6; stroke: #8ecae6"/>
     <use xlink:href="#m30dc52ba89" x="280.779756" y="643.910937" style="fill: #8ecae6; stroke: #8ecae6"/>
     <use xlink:href="#m30dc52ba89" x="307.771321" y="643.861538" style="fill: #8ecae6; stroke: #8ecae6"/>
     <use xlink:href="#m30dc52ba89" x="334.762887" y="640.423999" style="fill: #8ecae6; stroke: #8ecae6"/>
    </g>
   </g>
   <g id="line2d_37">
    <path d="M 91.8388 606.461582 
L 118.830366 614.699475 
L 145.821931 627.650738 
L 172.813496 640.170054 
L 199.805061 652.029812 
L 226.796626 664.99155 
L 253.788191 672.026477 
L 280.779756 671.277643 
L 307.771321 668.945466 
L 334.762887 671.254681 
" clip-path="url(#p8f51cd0e9b)" style="fill: none; stroke: #ffc4c4; stroke-width: 2; stroke-linecap: square"/>
    <defs>
     <path id="mc958662526" d="M 0 1.5 
C 0.397805 1.5 0.77937 1.341951 1.06066 1.06066 
C 1.341951 0.77937 1.5 0.397805 1.5 0 
C 1.5 -0.397805 1.341951 -0.77937 1.06066 -1.06066 
C 0.77937 -1.341951 0.397805 -1.5 0 -1.5 
C -0.397805 -1.5 -0.77937 -1.341951 -1.06066 -1.06066 
C -1.341951 -0.77937 -1.5 -0.397805 -1.5 0 
C -1.5 0.397805 -1.341951 0.77937 -1.06066 1.06066 
C -0.77937 1.341951 -0.397805 1.5 0 1.5 
z
" style="stroke: #ffc4c4"/>
    </defs>
    <g clip-path="url(#p8f51cd0e9b)">
     <use xlink:href="#mc958662526" x="91.8388" y="606.461582" style="fill: #ffc4c4; stroke: #ffc4c4"/>
     <use xlink:href="#mc958662526" x="118.830366" y="614.699475" style="fill: #ffc4c4; stroke: #ffc4c4"/>
     <use xlink:href="#mc958662526" x="145.821931" y="627.650738" style="fill: #ffc4c4; stroke: #ffc4c4"/>
     <use xlink:href="#mc958662526" x="172.813496" y="640.170054" style="fill: #ffc4c4; stroke: #ffc4c4"/>
     <use xlink:href="#mc958662526" x="199.805061" y="652.029812" style="fill: #ffc4c4; stroke: #ffc4c4"/>
     <use xlink:href="#mc958662526" x="226.796626" y="664.99155" style="fill: #ffc4c4; stroke: #ffc4c4"/>
     <use xlink:href="#mc958662526" x="253.788191" y="672.026477" style="fill: #ffc4c4; stroke: #ffc4c4"/>
     <use xlink:href="#mc958662526" x="280.779756" y="671.277643" style="fill: #ffc4c4; stroke: #ffc4c4"/>
     <use xlink:href="#mc958662526" x="307.771321" y="668.945466" style="fill: #ffc4c4; stroke: #ffc4c4"/>
     <use xlink:href="#mc958662526" x="334.762887" y="671.254681" style="fill: #ffc4c4; stroke: #ffc4c4"/>
    </g>
   </g>
   <g id="line2d_38">
    <path d="M 91.8388 601.564622 
L 118.830366 611.58443 
L 145.821931 626.264712 
L 172.813496 639.399463 
L 199.805061 652.432575 
L 226.796626 664.291662 
L 253.788191 671.19647 
L 280.779756 671.660744 
L 307.771321 669.275496 
L 334.762887 672.474812 
" clip-path="url(#p8f51cd0e9b)" style="fill: none; stroke: #b25068; stroke-width: 2; stroke-linecap: square"/>
    <defs>
     <path id="m6b581ef623" d="M 0 1.5 
C 0.397805 1.5 0.77937 1.341951 1.06066 1.06066 
C 1.341951 0.77937 1.5 0.397805 1.5 0 
C 1.5 -0.397805 1.341951 -0.77937 1.06066 -1.06066 
C 0.77937 -1.341951 0.397805 -1.5 0 -1.5 
C -0.397805 -1.5 -0.77937 -1.341951 -1.06066 -1.06066 
C -1.341951 -0.77937 -1.5 -0.397805 -1.5 0 
C -1.5 0.397805 -1.341951 0.77937 -1.06066 1.06066 
C -0.77937 1.341951 -0.397805 1.5 0 1.5 
z
" style="stroke: #b25068"/>
    </defs>
    <g clip-path="url(#p8f51cd0e9b)">
     <use xlink:href="#m6b581ef623" x="91.8388" y="601.564622" style="fill: #b25068; stroke: #b25068"/>
     <use xlink:href="#m6b581ef623" x="118.830366" y="611.58443" style="fill: #b25068; stroke: #b25068"/>
     <use xlink:href="#m6b581ef623" x="145.821931" y="626.264712" style="fill: #b25068; stroke: #b25068"/>
     <use xlink:href="#m6b581ef623" x="172.813496" y="639.399463" style="fill: #b25068; stroke: #b25068"/>
     <use xlink:href="#m6b581ef623" x="199.805061" y="652.432575" style="fill: #b25068; stroke: #b25068"/>
     <use xlink:href="#m6b581ef623" x="226.796626" y="664.291662" style="fill: #b25068; stroke: #b25068"/>
     <use xlink:href="#m6b581ef623" x="253.788191" y="671.19647" style="fill: #b25068; stroke: #b25068"/>
     <use xlink:href="#m6b581ef623" x="280.779756" y="671.660744" style="fill: #b25068; stroke: #b25068"/>
     <use xlink:href="#m6b581ef623" x="307.771321" y="669.275496" style="fill: #b25068; stroke: #b25068"/>
     <use xlink:href="#m6b581ef623" x="334.762887" y="672.474812" style="fill: #b25068; stroke: #b25068"/>
    </g>
   </g>
   <g id="patch_3">
    <path d="M 72 775.8 
L 72 574.2 
" style="fill: none; stroke: #808080; stroke-linejoin: miter; stroke-linecap: square"/>
   </g>
   <g id="patch_4">
    <path d="M 360 775.8 
L 360 574.2 
" style="fill: none; stroke: #808080; stroke-linejoin: miter; stroke-linecap: square"/>
   </g>
   <g id="patch_5">
    <path d="M 72 775.8 
L 360 775.8 
" style="fill: none; stroke: #808080; stroke-linejoin: miter; stroke-linecap: square"/>
   </g>
   <g id="patch_6">
    <path d="M 72 574.2 
L 360 574.2 
" style="fill: none; stroke: #808080; stroke-linejoin: miter; stroke-linecap: square"/>
   </g>
   <g id="legend_1">
    <g id="patch_7">
     <path d="M 87.47625 571.344375 
L 344.52375 571.344375 
Q 346.92375 571.344375 346.92375 568.944375 
L 346.92375 501.96 
Q 346.92375 499.56 344.52375 499.56 
L 87.47625 499.56 
Q 85.07625 499.56 85.07625 501.96 
L 85.07625 568.944375 
Q 85.07625 571.344375 87.47625 571.344375 
L 87.47625 571.344375 
z
" style="fill: none; stroke: #cccccc; stroke-width: 0.5; stroke-linejoin: miter"/>
    </g>
    <g id="line2d_39">
     <path d="M 89.87625 508.749375 
L 101.87625 508.749375 
L 113.87625 508.749375 
" style="fill: none; stroke-dasharray: 3.7,1.6; stroke-dashoffset: 0; stroke: #000000; stroke-opacity: 0.5"/>
    </g>
    <g id="text_7">
     <!-- ideal -->
     <g transform="translate(123.47625 512.949375)scale(0.12 -0.12)">
      <defs>
       <path id="ArialMT-64" d="M 2575 0 
L 2575 419 
Q 2259 -75 1647 -75 
Q 1250 -75 917 144 
Q 584 363 401 755 
Q 219 1147 219 1656 
Q 219 2153 384 2558 
Q 550 2963 881 3178 
Q 1213 3394 1622 3394 
Q 1922 3394 2156 3267 
Q 2391 3141 2538 2938 
L 2538 4581 
L 3097 4581 
L 3097 0 
L 2575 0 
z
M 797 1656 
Q 797 1019 1065 703 
Q 1334 388 1700 388 
Q 2069 388 2326 689 
Q 2584 991 2584 1609 
Q 2584 2291 2321 2609 
Q 2059 2928 1675 2928 
Q 1300 2928 1048 2622 
Q 797 2316 797 1656 
z
" transform="scale(0.015625)"/>
       <path id="ArialMT-61" d="M 2588 409 
Q 2275 144 1986 34 
Q 1697 -75 1366 -75 
Q 819 -75 525 192 
Q 231 459 231 875 
Q 231 1119 342 1320 
Q 453 1522 633 1644 
Q 813 1766 1038 1828 
Q 1203 1872 1538 1913 
Q 2219 1994 2541 2106 
Q 2544 2222 2544 2253 
Q 2544 2597 2384 2738 
Q 2169 2928 1744 2928 
Q 1347 2928 1158 2789 
Q 969 2650 878 2297 
L 328 2372 
Q 403 2725 575 2942 
Q 747 3159 1072 3276 
Q 1397 3394 1825 3394 
Q 2250 3394 2515 3294 
Q 2781 3194 2906 3042 
Q 3031 2891 3081 2659 
Q 3109 2516 3109 2141 
L 3109 1391 
Q 3109 606 3145 398 
Q 3181 191 3288 0 
L 2700 0 
Q 2613 175 2588 409 
z
M 2541 1666 
Q 2234 1541 1622 1453 
Q 1275 1403 1131 1340 
Q 988 1278 909 1158 
Q 831 1038 831 891 
Q 831 666 1001 516 
Q 1172 366 1500 366 
Q 1825 366 2078 508 
Q 2331 650 2450 897 
Q 2541 1088 2541 1459 
L 2541 1666 
z
" transform="scale(0.015625)"/>
       <path id="ArialMT-6c" d="M 409 0 
L 409 4581 
L 972 4581 
L 972 0 
L 409 0 
z
" transform="scale(0.015625)"/>
      </defs>
      <use xlink:href="#ArialMT-69"/>
      <use xlink:href="#ArialMT-64" x="22.216797"/>
      <use xlink:href="#ArialMT-65" x="77.832031"/>
      <use xlink:href="#ArialMT-61" x="133.447266"/>
      <use xlink:href="#ArialMT-6c" x="189.0625"/>
     </g>
    </g>
    <g id="line2d_40">
     <path d="M 89.87625 525.72375 
L 101.87625 525.72375 
L 113.87625 525.72375 
" style="fill: none; stroke: #168aad; stroke-width: 2; stroke-linecap: square"/>
     <g>
      <use xlink:href="#mf3264da690" x="101.87625" y="525.72375" style="fill: #168aad; stroke: #168aad"/>
     </g>
    </g>
    <g id="text_8">
     <!-- Mink+SE -->
     <g transform="translate(123.47625 529.92375)scale(0.12 -0.12)">
      <defs>
       <path id="ArialMT-4d" d="M 475 0 
L 475 4581 
L 1388 4581 
L 2472 1338 
Q 2622 884 2691 659 
Q 2769 909 2934 1394 
L 4031 4581 
L 4847 4581 
L 4847 0 
L 4263 0 
L 4263 3834 
L 2931 0 
L 2384 0 
L 1059 3900 
L 1059 0 
L 475 0 
z
" transform="scale(0.015625)"/>
       <path id="ArialMT-6b" d="M 425 0 
L 425 4581 
L 988 4581 
L 988 1969 
L 2319 3319 
L 3047 3319 
L 1778 2088 
L 3175 0 
L 2481 0 
L 1384 1697 
L 988 1316 
L 988 0 
L 425 0 
z
" transform="scale(0.015625)"/>
       <path id="ArialMT-2b" d="M 1603 741 
L 1603 1997 
L 356 1997 
L 356 2522 
L 1603 2522 
L 1603 3769 
L 2134 3769 
L 2134 2522 
L 3381 2522 
L 3381 1997 
L 2134 1997 
L 2134 741 
L 1603 741 
z
" transform="scale(0.015625)"/>
       <path id="ArialMT-53" d="M 288 1472 
L 859 1522 
Q 900 1178 1048 958 
Q 1197 738 1509 602 
Q 1822 466 2213 466 
Q 2559 466 2825 569 
Q 3091 672 3220 851 
Q 3350 1031 3350 1244 
Q 3350 1459 3225 1620 
Q 3100 1781 2813 1891 
Q 2628 1963 1997 2114 
Q 1366 2266 1113 2400 
Q 784 2572 623 2826 
Q 463 3081 463 3397 
Q 463 3744 659 4045 
Q 856 4347 1234 4503 
Q 1613 4659 2075 4659 
Q 2584 4659 2973 4495 
Q 3363 4331 3572 4012 
Q 3781 3694 3797 3291 
L 3216 3247 
Q 3169 3681 2898 3903 
Q 2628 4125 2100 4125 
Q 1550 4125 1298 3923 
Q 1047 3722 1047 3438 
Q 1047 3191 1225 3031 
Q 1400 2872 2139 2705 
Q 2878 2538 3153 2413 
Q 3553 2228 3743 1945 
Q 3934 1663 3934 1294 
Q 3934 928 3725 604 
Q 3516 281 3123 101 
Q 2731 -78 2241 -78 
Q 1619 -78 1198 103 
Q 778 284 539 648 
Q 300 1013 288 1472 
z
" transform="scale(0.015625)"/>
       <path id="ArialMT-45" d="M 506 0 
L 506 4581 
L 3819 4581 
L 3819 4041 
L 1113 4041 
L 1113 2638 
L 3647 2638 
L 3647 2100 
L 1113 2100 
L 1113 541 
L 3925 541 
L 3925 0 
L 506 0 
z
" transform="scale(0.015625)"/>
      </defs>
      <use xlink:href="#ArialMT-4d"/>
      <use xlink:href="#ArialMT-69" x="83.300781"/>
      <use xlink:href="#ArialMT-6e" x="105.517578"/>
      <use xlink:href="#ArialMT-6b" x="161.132812"/>
      <use xlink:href="#ArialMT-2b" x="211.132812"/>
      <use xlink:href="#ArialMT-53" x="269.53125"/>
      <use xlink:href="#ArialMT-45" x="336.230469"/>
     </g>
    </g>
    <g id="line2d_41">
     <path d="M 89.87625 542.698125 
L 101.87625 542.698125 
L 113.87625 542.698125 
" style="fill: none; stroke: #498467; stroke-width: 2; stroke-linecap: square"/>
     <g>
      <use xlink:href="#m02f715c614" x="101.87625" y="542.698125" style="fill: #498467; stroke: #498467"/>
     </g>
    </g>
    <g id="text_9">
     <!-- Mink+AU -->
     <g transform="translate(123.47625 546.898125)scale(0.12 -0.12)">
      <defs>
       <path id="ArialMT-41" d="M -9 0 
L 1750 4581 
L 2403 4581 
L 4278 0 
L 3588 0 
L 3053 1388 
L 1138 1388 
L 634 0 
L -9 0 
z
M 1313 1881 
L 2866 1881 
L 2388 3150 
Q 2169 3728 2063 4100 
Q 1975 3659 1816 3225 
L 1313 1881 
z
" transform="scale(0.015625)"/>
       <path id="ArialMT-55" d="M 3500 4581 
L 4106 4581 
L 4106 1934 
Q 4106 1244 3950 837 
Q 3794 431 3386 176 
Q 2978 -78 2316 -78 
Q 1672 -78 1262 144 
Q 853 366 678 786 
Q 503 1206 503 1934 
L 503 4581 
L 1109 4581 
L 1109 1938 
Q 1109 1341 1220 1058 
Q 1331 775 1601 622 
Q 1872 469 2263 469 
Q 2931 469 3215 772 
Q 3500 1075 3500 1938 
L 3500 4581 
z
" transform="scale(0.015625)"/>
      </defs>
      <use xlink:href="#ArialMT-4d"/>
      <use xlink:href="#ArialMT-69" x="83.300781"/>
      <use xlink:href="#ArialMT-6e" x="105.517578"/>
      <use xlink:href="#ArialMT-6b" x="161.132812"/>
      <use xlink:href="#ArialMT-2b" x="211.132812"/>
      <use xlink:href="#ArialMT-41" x="269.53125"/>
      <use xlink:href="#ArialMT-55" x="336.230469"/>
     </g>
    </g>
    <g id="line2d_42">
     <path d="M 89.87625 559.6725 
L 101.87625 559.6725 
L 113.87625 559.6725 
" style="fill: none; stroke: #3a4f7a; stroke-width: 2; stroke-linecap: square"/>
     <g>
      <use xlink:href="#m0ad376a77f" x="101.87625" y="559.6725" style="fill: #3a4f7a; stroke: #3a4f7a"/>
     </g>
    </g>
    <g id="text_10">
     <!-- Mink+DUL -->
     <g transform="translate(123.47625 563.8725)scale(0.12 -0.12)">
      <defs>
       <path id="ArialMT-44" d="M 494 0 
L 494 4581 
L 2072 4581 
Q 2606 4581 2888 4516 
Q 3281 4425 3559 4188 
Q 3922 3881 4101 3404 
Q 4281 2928 4281 2316 
Q 4281 1794 4159 1391 
Q 4038 988 3847 723 
Q 3656 459 3429 307 
Q 3203 156 2883 78 
Q 2563 0 2147 0 
L 494 0 
z
M 1100 541 
L 2078 541 
Q 2531 541 2789 625 
Q 3047 709 3200 863 
Q 3416 1078 3536 1442 
Q 3656 1806 3656 2325 
Q 3656 3044 3420 3430 
Q 3184 3816 2847 3947 
Q 2603 4041 2063 4041 
L 1100 4041 
L 1100 541 
z
" transform="scale(0.015625)"/>
       <path id="ArialMT-4c" d="M 469 0 
L 469 4581 
L 1075 4581 
L 1075 541 
L 3331 541 
L 3331 0 
L 469 0 
z
" transform="scale(0.015625)"/>
      </defs>
      <use xlink:href="#ArialMT-4d"/>
      <use xlink:href="#ArialMT-69" x="83.300781"/>
      <use xlink:href="#ArialMT-6e" x="105.517578"/>
      <use xlink:href="#ArialMT-6b" x="161.132812"/>
      <use xlink:href="#ArialMT-2b" x="211.132812"/>
      <use xlink:href="#ArialMT-44" x="269.53125"/>
      <use xlink:href="#ArialMT-55" x="341.748047"/>
      <use xlink:href="#ArialMT-4c" x="413.964844"/>
     </g>
    </g>
    <g id="line2d_43">
     <path d="M 203.825625 508.749375 
L 215.825625 508.749375 
L 227.825625 508.749375 
" style="fill: none; stroke: #b08bbb; stroke-width: 2; stroke-linecap: square"/>
     <g>
      <use xlink:href="#m0fbdda2bcf" x="215.825625" y="508.749375" style="fill: #b08bbb; stroke: #b08bbb"/>
     </g>
    </g>
    <g id="text_11">
     <!-- Mink+RUL -->
     <g transform="translate(237.425625 512.949375)scale(0.12 -0.12)">
      <defs>
       <path id="ArialMT-52" d="M 503 0 
L 503 4581 
L 2534 4581 
Q 3147 4581 3465 4457 
Q 3784 4334 3975 4021 
Q 4166 3709 4166 3331 
Q 4166 2844 3850 2509 
Q 3534 2175 2875 2084 
Q 3116 1969 3241 1856 
Q 3506 1613 3744 1247 
L 4541 0 
L 3778 0 
L 3172 953 
Q 2906 1366 2734 1584 
Q 2563 1803 2427 1890 
Q 2291 1978 2150 2013 
Q 2047 2034 1813 2034 
L 1109 2034 
L 1109 0 
L 503 0 
z
M 1109 2559 
L 2413 2559 
Q 2828 2559 3062 2645 
Q 3297 2731 3419 2920 
Q 3541 3109 3541 3331 
Q 3541 3656 3305 3865 
Q 3069 4075 2559 4075 
L 1109 4075 
L 1109 2559 
z
" transform="scale(0.015625)"/>
      </defs>
      <use xlink:href="#ArialMT-4d"/>
      <use xlink:href="#ArialMT-69" x="83.300781"/>
      <use xlink:href="#ArialMT-6e" x="105.517578"/>
      <use xlink:href="#ArialMT-6b" x="161.132812"/>
      <use xlink:href="#ArialMT-2b" x="211.132812"/>
      <use xlink:href="#ArialMT-52" x="269.53125"/>
      <use xlink:href="#ArialMT-55" x="341.748047"/>
      <use xlink:href="#ArialMT-4c" x="413.964844"/>
     </g>
    </g>
    <g id="line2d_44">
     <path d="M 203.825625 525.87 
L 215.825625 525.87 
L 227.825625 525.87 
" style="fill: none; stroke: #8ecae6; stroke-width: 2; stroke-linecap: square"/>
     <g>
      <use xlink:href="#m30dc52ba89" x="215.825625" y="525.87" style="fill: #8ecae6; stroke: #8ecae6"/>
     </g>
    </g>
    <g id="text_12">
     <!-- Mink+MCD(p=0.05) -->
     <g transform="translate(237.425625 530.07)scale(0.12 -0.12)">
      <defs>
       <path id="ArialMT-43" d="M 3763 1606 
L 4369 1453 
Q 4178 706 3683 314 
Q 3188 -78 2472 -78 
Q 1731 -78 1267 223 
Q 803 525 561 1097 
Q 319 1669 319 2325 
Q 319 3041 592 3573 
Q 866 4106 1370 4382 
Q 1875 4659 2481 4659 
Q 3169 4659 3637 4309 
Q 4106 3959 4291 3325 
L 3694 3184 
Q 3534 3684 3231 3912 
Q 2928 4141 2469 4141 
Q 1941 4141 1586 3887 
Q 1231 3634 1087 3207 
Q 944 2781 944 2328 
Q 944 1744 1114 1308 
Q 1284 872 1643 656 
Q 2003 441 2422 441 
Q 2931 441 3284 734 
Q 3638 1028 3763 1606 
z
" transform="scale(0.015625)"/>
       <path id="ArialMT-28" d="M 1497 -1347 
Q 1031 -759 709 28 
Q 388 816 388 1659 
Q 388 2403 628 3084 
Q 909 3875 1497 4659 
L 1900 4659 
Q 1522 4009 1400 3731 
Q 1209 3300 1100 2831 
Q 966 2247 966 1656 
Q 966 153 1900 -1347 
L 1497 -1347 
z
" transform="scale(0.015625)"/>
       <path id="ArialMT-70" d="M 422 -1272 
L 422 3319 
L 934 3319 
L 934 2888 
Q 1116 3141 1344 3267 
Q 1572 3394 1897 3394 
Q 2322 3394 2647 3175 
Q 2972 2956 3137 2557 
Q 3303 2159 3303 1684 
Q 3303 1175 3120 767 
Q 2938 359 2589 142 
Q 2241 -75 1856 -75 
Q 1575 -75 1351 44 
Q 1128 163 984 344 
L 984 -1272 
L 422 -1272 
z
M 931 1641 
Q 931 1000 1190 694 
Q 1450 388 1819 388 
Q 2194 388 2461 705 
Q 2728 1022 2728 1688 
Q 2728 2322 2467 2637 
Q 2206 2953 1844 2953 
Q 1484 2953 1207 2617 
Q 931 2281 931 1641 
z
" transform="scale(0.015625)"/>
       <path id="ArialMT-3d" d="M 3381 2694 
L 356 2694 
L 356 3219 
L 3381 3219 
L 3381 2694 
z
M 3381 1303 
L 356 1303 
L 356 1828 
L 3381 1828 
L 3381 1303 
z
" transform="scale(0.015625)"/>
       <path id="ArialMT-35" d="M 266 1200 
L 856 1250 
Q 922 819 1161 601 
Q 1400 384 1738 384 
Q 2144 384 2425 690 
Q 2706 997 2706 1503 
Q 2706 1984 2436 2262 
Q 2166 2541 1728 2541 
Q 1456 2541 1237 2417 
Q 1019 2294 894 2097 
L 366 2166 
L 809 4519 
L 3088 4519 
L 3088 3981 
L 1259 3981 
L 1013 2750 
Q 1425 3038 1878 3038 
Q 2478 3038 2890 2622 
Q 3303 2206 3303 1553 
Q 3303 931 2941 478 
Q 2500 -78 1738 -78 
Q 1113 -78 717 272 
Q 322 622 266 1200 
z
" transform="scale(0.015625)"/>
       <path id="ArialMT-29" d="M 791 -1347 
L 388 -1347 
Q 1322 153 1322 1656 
Q 1322 2244 1188 2822 
Q 1081 3291 891 3722 
Q 769 4003 388 4659 
L 791 4659 
Q 1378 3875 1659 3084 
Q 1900 2403 1900 1659 
Q 1900 816 1576 28 
Q 1253 -759 791 -1347 
z
" transform="scale(0.015625)"/>
      </defs>
      <use xlink:href="#ArialMT-4d"/>
      <use xlink:href="#ArialMT-69" x="83.300781"/>
      <use xlink:href="#ArialMT-6e" x="105.517578"/>
      <use xlink:href="#ArialMT-6b" x="161.132812"/>
      <use xlink:href="#ArialMT-2b" x="211.132812"/>
      <use xlink:href="#ArialMT-4d" x="269.53125"/>
      <use xlink:href="#ArialMT-43" x="352.832031"/>
      <use xlink:href="#ArialMT-44" x="425.048828"/>
      <use xlink:href="#ArialMT-28" x="497.265625"/>
      <use xlink:href="#ArialMT-70" x="530.566406"/>
      <use xlink:href="#ArialMT-3d" x="586.181641"/>
      <use xlink:href="#ArialMT-30" x="644.580078"/>
      <use xlink:href="#ArialMT-2e" x="700.195312"/>
      <use xlink:href="#ArialMT-30" x="727.978516"/>
      <use xlink:href="#ArialMT-35" x="783.59375"/>
      <use xlink:href="#ArialMT-29" x="839.208984"/>
     </g>
    </g>
    <g id="line2d_45">
     <path d="M 203.825625 542.985 
L 215.825625 542.985 
L 227.825625 542.985 
" style="fill: none; stroke: #ffc4c4; stroke-width: 2; stroke-linecap: square"/>
     <g>
      <use xlink:href="#mc958662526" x="215.825625" y="542.985" style="fill: #ffc4c4; stroke: #ffc4c4"/>
     </g>
    </g>
    <g id="text_13">
     <!-- Mink+CUE -->
     <g transform="translate(237.425625 547.185)scale(0.12 -0.12)">
      <use xlink:href="#ArialMT-4d"/>
      <use xlink:href="#ArialMT-69" x="83.300781"/>
      <use xlink:href="#ArialMT-6e" x="105.517578"/>
      <use xlink:href="#ArialMT-6b" x="161.132812"/>
      <use xlink:href="#ArialMT-2b" x="211.132812"/>
      <use xlink:href="#ArialMT-43" x="269.53125"/>
      <use xlink:href="#ArialMT-55" x="341.748047"/>
      <use xlink:href="#ArialMT-45" x="413.964844"/>
     </g>
    </g>
    <g id="line2d_46">
     <path d="M 203.825625 559.959375 
L 215.825625 559.959375 
L 227.825625 559.959375 
" style="fill: none; stroke: #b25068; stroke-width: 2; stroke-linecap: square"/>
     <g>
      <use xlink:href="#m6b581ef623" x="215.825625" y="559.959375" style="fill: #b25068; stroke: #b25068"/>
     </g>
    </g>
    <g id="text_14">
     <!-- Mink+CUE+ -->
     <g transform="translate(237.425625 564.159375)scale(0.12 -0.12)">
      <use xlink:href="#ArialMT-4d"/>
      <use xlink:href="#ArialMT-69" x="83.300781"/>
      <use xlink:href="#ArialMT-6e" x="105.517578"/>
      <use xlink:href="#ArialMT-6b" x="161.132812"/>
      <use xlink:href="#ArialMT-2b" x="211.132812"/>
      <use xlink:href="#ArialMT-43" x="269.53125"/>
      <use xlink:href="#ArialMT-55" x="341.748047"/>
      <use xlink:href="#ArialMT-45" x="413.964844"/>
      <use xlink:href="#ArialMT-2b" x="480.664062"/>
     </g>
    </g>
   </g>
  </g>
  <g id="axes_2">
   <g id="patch_8">
    <path d="M 72 818.141232 
L 360 818.141232 
L 360 791.058768 
L 72 791.058768 
z
" style="fill: #ffffff"/>
   </g>
   <g id="matplotlib.axis_3">
    <g id="xtick_11">
     <g id="line2d_47">
      <defs>
       <path id="mc0ff56005e" d="M 0 0 
L 0 -3.5 
" style="stroke: #555555; stroke-width: 0.8"/>
      </defs>
      <g>
       <use xlink:href="#mc0ff56005e" x="91.8388" y="791.058768" style="fill: #555555; stroke: #555555; stroke-width: 0.8"/>
      </g>
     </g>
    </g>
    <g id="xtick_12">
     <g id="line2d_48">
      <g>
       <use xlink:href="#mc0ff56005e" x="118.830366" y="791.058768" style="fill: #555555; stroke: #555555; stroke-width: 0.8"/>
      </g>
     </g>
    </g>
    <g id="xtick_13">
     <g id="line2d_49">
      <g>
       <use xlink:href="#mc0ff56005e" x="145.821931" y="791.058768" style="fill: #555555; stroke: #555555; stroke-width: 0.8"/>
      </g>
     </g>
    </g>
    <g id="xtick_14">
     <g id="line2d_50">
      <g>
       <use xlink:href="#mc0ff56005e" x="172.813496" y="791.058768" style="fill: #555555; stroke: #555555; stroke-width: 0.8"/>
      </g>
     </g>
    </g>
    <g id="xtick_15">
     <g id="line2d_51">
      <g>
       <use xlink:href="#mc0ff56005e" x="199.805061" y="791.058768" style="fill: #555555; stroke: #555555; stroke-width: 0.8"/>
      </g>
     </g>
    </g>
    <g id="xtick_16">
     <g id="line2d_52">
      <g>
       <use xlink:href="#mc0ff56005e" x="226.796626" y="791.058768" style="fill: #555555; stroke: #555555; stroke-width: 0.8"/>
      </g>
     </g>
    </g>
    <g id="xtick_17">
     <g id="line2d_53">
      <g>
       <use xlink:href="#mc0ff56005e" x="253.788191" y="791.058768" style="fill: #555555; stroke: #555555; stroke-width: 0.8"/>
      </g>
     </g>
    </g>
    <g id="xtick_18">
     <g id="line2d_54">
      <g>
       <use xlink:href="#mc0ff56005e" x="280.779756" y="791.058768" style="fill: #555555; stroke: #555555; stroke-width: 0.8"/>
      </g>
     </g>
    </g>
    <g id="xtick_19">
     <g id="line2d_55">
      <g>
       <use xlink:href="#mc0ff56005e" x="307.771321" y="791.058768" style="fill: #555555; stroke: #555555; stroke-width: 0.8"/>
      </g>
     </g>
    </g>
    <g id="xtick_20">
     <g id="line2d_56">
      <g>
       <use xlink:href="#mc0ff56005e" x="334.762887" y="791.058768" style="fill: #555555; stroke: #555555; stroke-width: 0.8"/>
      </g>
     </g>
    </g>
   </g>
   <g id="matplotlib.axis_4">
    <g id="ytick_6">
     <g id="line2d_57">
      <g>
       <use xlink:href="#mf579b93b2f" x="72" y="804.6" style="fill: #555555; stroke: #555555; stroke-width: 0.8"/>
      </g>
     </g>
     <g id="text_15">
      <!-- 0.7 -->
      <g style="fill: #555555" transform="translate(48.32 808.894688)scale(0.12 -0.12)">
       <defs>
        <path id="ArialMT-37" d="M 303 3981 
L 303 4522 
L 3269 4522 
L 3269 4084 
Q 2831 3619 2401 2847 
Q 1972 2075 1738 1259 
Q 1569 684 1522 0 
L 944 0 
Q 953 541 1156 1306 
Q 1359 2072 1739 2783 
Q 2119 3494 2547 3981 
L 303 3981 
z
" transform="scale(0.015625)"/>
       </defs>
       <use xlink:href="#ArialMT-30"/>
       <use xlink:href="#ArialMT-2e" x="55.615234"/>
       <use xlink:href="#ArialMT-37" x="83.398438"/>
      </g>
     </g>
    </g>
   </g>
   <g id="patch_9">
    <path d="M 85.090909 994.177255 
L 87.790066 994.177255 
L 87.790066 802.177255 
L 85.090909 802.177255 
z
" clip-path="url(#p1ff2e9c7dc)" style="fill: #168aad"/>
   </g>
   <g id="patch_10">
    <path d="M 112.082474 994.177255 
L 114.781631 994.177255 
L 114.781631 971.251008 
L 112.082474 971.251008 
z
" clip-path="url(#p1ff2e9c7dc)" style="fill: #168aad"/>
   </g>
   <g id="patch_11">
    <path d="M 139.074039 994.177255 
L 141.773196 994.177255 
L 141.773196 975.729945 
L 139.074039 975.729945 
z
" clip-path="url(#p1ff2e9c7dc)" style="fill: #168aad"/>
   </g>
   <g id="patch_12">
    <path d="M 166.065604 994.177255 
L 168.764761 994.177255 
L 168.764761 976.918887 
L 166.065604 976.918887 
z
" clip-path="url(#p1ff2e9c7dc)" style="fill: #168aad"/>
   </g>
   <g id="patch_13">
    <path d="M 193.05717 994.177255 
L 195.756326 994.177255 
L 195.756326 985.168382 
L 193.05717 985.168382 
z
" clip-path="url(#p1ff2e9c7dc)" style="fill: #168aad"/>
   </g>
   <g id="patch_14">
    <path d="M 220.048735 994.177255 
L 222.747891 994.177255 
L 222.747891 988.66005 
L 220.048735 988.66005 
z
" clip-path="url(#p1ff2e9c7dc)" style="fill: #168aad"/>
   </g>
   <g id="patch_15">
    <path d="M 247.0403 994.177255 
L 249.739456 994.177255 
L 249.739456 991.008014 
L 247.0403 991.008014 
z
" clip-path="url(#p1ff2e9c7dc)" style="fill: #168aad"/>
   </g>
   <g id="patch_16">
    <path d="M 274.031865 994.177255 
L 276.731022 994.177255 
L 276.731022 992.522466 
L 274.031865 992.522466 
z
" clip-path="url(#p1ff2e9c7dc)" style="fill: #168aad"/>
   </g>
   <g id="patch_17">
    <path d="M 301.02343 994.177255 
L 303.722587 994.177255 
L 303.722587 993.509833 
L 301.02343 993.509833 
z
" clip-path="url(#p1ff2e9c7dc)" style="fill: #168aad"/>
   </g>
   <g id="patch_18">
    <path d="M 328.014995 994.177255 
L 330.714152 994.177255 
L 330.714152 994.002057 
L 328.014995 994.002057 
z
" clip-path="url(#p1ff2e9c7dc)" style="fill: #168aad"/>
   </g>
   <g id="patch_19">
    <path d="M 87.790066 994.177255 
L 90.489222 994.177255 
L 90.489222 992.908871 
L 87.790066 992.908871 
z
" clip-path="url(#p1ff2e9c7dc)" style="fill: #498467"/>
   </g>
   <g id="patch_20">
    <path d="M 114.781631 994.177255 
L 117.480787 994.177255 
L 117.480787 990.845056 
L 114.781631 990.845056 
z
" clip-path="url(#p1ff2e9c7dc)" style="fill: #498467"/>
   </g>
   <g id="patch_21">
    <path d="M 141.773196 994.177255 
L 144.472352 994.177255 
L 144.472352 985.471862 
L 141.773196 985.471862 
z
" clip-path="url(#p1ff2e9c7dc)" style="fill: #498467"/>
   </g>
   <g id="patch_22">
    <path d="M 168.764761 994.177255 
L 171.463918 994.177255 
L 171.463918 974.342392 
L 168.764761 974.342392 
z
" clip-path="url(#p1ff2e9c7dc)" style="fill: #498467"/>
   </g>
   <g id="patch_23">
    <path d="M 195.756326 994.177255 
L 198.455483 994.177255 
L 198.455483 957.297079 
L 195.756326 957.297079 
z
" clip-path="url(#p1ff2e9c7dc)" style="fill: #498467"/>
   </g>
   <g id="patch_24">
    <path d="M 222.747891 994.177255 
L 225.447048 994.177255 
L 225.447048 932.484714 
L 222.747891 932.484714 
z
" clip-path="url(#p1ff2e9c7dc)" style="fill: #498467"/>
   </g>
   <g id="patch_25">
    <path d="M 249.739456 994.177255 
L 252.438613 994.177255 
L 252.438613 926.237712 
L 249.739456 926.237712 
z
" clip-path="url(#p1ff2e9c7dc)" style="fill: #498467"/>
   </g>
   <g id="patch_26">
    <path d="M 276.731022 994.177255 
L 279.430178 994.177255 
L 279.430178 944.229819 
L 276.731022 944.229819 
z
" clip-path="url(#p1ff2e9c7dc)" style="fill: #498467"/>
   </g>
   <g id="patch_27">
    <path d="M 303.722587 994.177255 
L 306.421743 994.177255 
L 306.421743 975.307537 
L 303.722587 975.307537 
z
" clip-path="url(#p1ff2e9c7dc)" style="fill: #498467"/>
   </g>
   <g id="patch_28">
    <path d="M 330.714152 994.177255 
L 333.413308 994.177255 
L 333.413308 991.822857 
L 330.714152 991.822857 
z
" clip-path="url(#p1ff2e9c7dc)" style="fill: #498467"/>
   </g>
   <g id="patch_29">
    <path d="M 90.489222 994.177255 
L 93.188379 994.177255 
L 93.188379 993.786214 
L 90.489222 993.786214 
z
" clip-path="url(#p1ff2e9c7dc)" style="fill: #3a4f7a"/>
   </g>
   <g id="patch_30">
    <path d="M 117.480787 994.177255 
L 120.179944 994.177255 
L 120.179944 984.23361 
L 117.480787 984.23361 
z
" clip-path="url(#p1ff2e9c7dc)" style="fill: #3a4f7a"/>
   </g>
   <g id="patch_31">
    <path d="M 144.472352 994.177255 
L 147.171509 994.177255 
L 147.171509 939.054132 
L 144.472352 939.054132 
z
" clip-path="url(#p1ff2e9c7dc)" style="fill: #3a4f7a"/>
   </g>
   <g id="patch_32">
    <path d="M 171.463918 994.177255 
L 174.163074 994.177255 
L 174.163074 898.882779 
L 171.463918 898.882779 
z
" clip-path="url(#p1ff2e9c7dc)" style="fill: #3a4f7a"/>
   </g>
   <g id="patch_33">
    <path d="M 198.455483 994.177255 
L 201.154639 994.177255 
L 201.154639 923.237514 
L 198.455483 923.237514 
z
" clip-path="url(#p1ff2e9c7dc)" style="fill: #3a4f7a"/>
   </g>
   <g id="patch_34">
    <path d="M 225.447048 994.177255 
L 228.146204 994.177255 
L 228.146204 965.635403 
L 225.447048 965.635403 
z
" clip-path="url(#p1ff2e9c7dc)" style="fill: #3a4f7a"/>
   </g>
   <g id="patch_35">
    <path d="M 252.438613 994.177255 
L 255.137769 994.177255 
L 255.137769 986.113612 
L 252.438613 986.113612 
z
" clip-path="url(#p1ff2e9c7dc)" style="fill: #3a4f7a"/>
   </g>
   <g id="patch_36">
    <path d="M 279.430178 994.177255 
L 282.129335 994.177255 
L 282.129335 992.159344 
L 279.430178 992.159344 
z
" clip-path="url(#p1ff2e9c7dc)" style="fill: #3a4f7a"/>
   </g>
   <g id="patch_37">
    <path d="M 306.421743 994.177255 
L 309.1209 994.177255 
L 309.1209 993.739807 
L 306.421743 993.739807 
z
" clip-path="url(#p1ff2e9c7dc)" style="fill: #3a4f7a"/>
   </g>
   <g id="patch_38">
    <path d="M 333.413308 994.177255 
L 336.112465 994.177255 
L 336.112465 994.105482 
L 333.413308 994.105482 
z
" clip-path="url(#p1ff2e9c7dc)" style="fill: #3a4f7a"/>
   </g>
   <g id="patch_39">
    <path d="M 93.188379 994.177255 
L 95.887535 994.177255 
L 95.887535 984.511517 
L 93.188379 984.511517 
z
" clip-path="url(#p1ff2e9c7dc)" style="fill: #b08bbb"/>
   </g>
   <g id="patch_40">
    <path d="M 120.179944 994.177255 
L 122.8791 994.177255 
L 122.8791 933.937704 
L 120.179944 933.937704 
z
" clip-path="url(#p1ff2e9c7dc)" style="fill: #b08bbb"/>
   </g>
   <g id="patch_41">
    <path d="M 147.171509 994.177255 
L 149.870665 994.177255 
L 149.870665 906.294986 
L 147.171509 906.294986 
z
" clip-path="url(#p1ff2e9c7dc)" style="fill: #b08bbb"/>
   </g>
   <g id="patch_42">
    <path d="M 174.163074 994.177255 
L 176.862231 994.177255 
L 176.862231 936.788185 
L 174.163074 936.788185 
z
" clip-path="url(#p1ff2e9c7dc)" style="fill: #b08bbb"/>
   </g>
   <g id="patch_43">
    <path d="M 201.154639 994.177255 
L 203.853796 994.177255 
L 203.853796 961.89337 
L 201.154639 961.89337 
z
" clip-path="url(#p1ff2e9c7dc)" style="fill: #b08bbb"/>
   </g>
   <g id="patch_44">
    <path d="M 228.146204 994.177255 
L 230.845361 994.177255 
L 230.845361 979.092834 
L 228.146204 979.092834 
z
" clip-path="url(#p1ff2e9c7dc)" style="fill: #b08bbb"/>
   </g>
   <g id="patch_45">
    <path d="M 255.137769 994.177255 
L 257.836926 994.177255 
L 257.836926 988.297874 
L 255.137769 988.297874 
z
" clip-path="url(#p1ff2e9c7dc)" style="fill: #b08bbb"/>
   </g>
   <g id="patch_46">
    <path d="M 282.129335 994.177255 
L 284.828491 994.177255 
L 284.828491 992.313238 
L 282.129335 992.313238 
z
" clip-path="url(#p1ff2e9c7dc)" style="fill: #b08bbb"/>
   </g>
   <g id="patch_47">
    <path d="M 309.1209 994.177255 
L 311.820056 994.177255 
L 311.820056 993.71975 
L 309.1209 993.71975 
z
" clip-path="url(#p1ff2e9c7dc)" style="fill: #b08bbb"/>
   </g>
   <g id="patch_48">
    <path d="M 336.112465 994.177255 
L 338.811621 994.177255 
L 338.811621 994.098441 
L 336.112465 994.098441 
z
" clip-path="url(#p1ff2e9c7dc)" style="fill: #b08bbb"/>
   </g>
   <g id="patch_49">
    <path d="M 95.887535 994.177255 
L 98.586692 994.177255 
L 98.586692 992.66957 
L 95.887535 992.66957 
z
" clip-path="url(#p1ff2e9c7dc)" style="fill: #8ecae6"/>
   </g>
   <g id="patch_50">
    <path d="M 122.8791 994.177255 
L 125.578257 994.177255 
L 125.578257 977.801227 
L 122.8791 977.801227 
z
" clip-path="url(#p1ff2e9c7dc)" style="fill: #8ecae6"/>
   </g>
   <g id="patch_51">
    <path d="M 149.870665 994.177255 
L 152.569822 994.177255 
L 152.569822 945.219717 
L 149.870665 945.219717 
z
" clip-path="url(#p1ff2e9c7dc)" style="fill: #8ecae6"/>
   </g>
   <g id="patch_52">
    <path d="M 176.862231 994.177255 
L 179.561387 994.177255 
L 179.561387 919.740931 
L 176.862231 919.740931 
z
" clip-path="url(#p1ff2e9c7dc)" style="fill: #8ecae6"/>
   </g>
   <g id="patch_53">
    <path d="M 203.853796 994.177255 
L 206.552952 994.177255 
L 206.552952 925.16905 
L 203.853796 925.16905 
z
" clip-path="url(#p1ff2e9c7dc)" style="fill: #8ecae6"/>
   </g>
   <g id="patch_54">
    <path d="M 230.845361 994.177255 
L 233.544517 994.177255 
L 233.544517 953.287996 
L 230.845361 953.287996 
z
" clip-path="url(#p1ff2e9c7dc)" style="fill: #8ecae6"/>
   </g>
   <g id="patch_55">
    <path d="M 257.836926 994.177255 
L 260.536082 994.177255 
L 260.536082 978.75446 
L 257.836926 978.75446 
z
" clip-path="url(#p1ff2e9c7dc)" style="fill: #8ecae6"/>
   </g>
   <g id="patch_56">
    <path d="M 284.828491 994.177255 
L 287.527648 994.177255 
L 287.527648 990.530922 
L 284.828491 990.530922 
z
" clip-path="url(#p1ff2e9c7dc)" style="fill: #8ecae6"/>
   </g>
   <g id="patch_57">
    <path d="M 311.820056 994.177255 
L 314.519213 994.177255 
L 314.519213 993.645102 
L 311.820056 993.645102 
z
" clip-path="url(#p1ff2e9c7dc)" style="fill: #8ecae6"/>
   </g>
   <g id="patch_58">
    <path d="M 338.811621 994.177255 
L 341.510778 994.177255 
L 341.510778 994.128923 
L 338.811621 994.128923 
z
" clip-path="url(#p1ff2e9c7dc)" style="fill: #8ecae6"/>
   </g>
   <g id="patch_59">
    <path d="M 98.586692 994.177255 
L 101.285848 994.177255 
L 101.285848 992.994059 
L 98.586692 992.994059 
z
" clip-path="url(#p1ff2e9c7dc)" style="fill: #ffc4c4"/>
   </g>
   <g id="patch_60">
    <path d="M 125.578257 994.177255 
L 128.277413 994.177255 
L 128.277413 980.150202 
L 125.578257 980.150202 
z
" clip-path="url(#p1ff2e9c7dc)" style="fill: #ffc4c4"/>
   </g>
   <g id="patch_61">
    <path d="M 152.569822 994.177255 
L 155.268978 994.177255 
L 155.268978 952.978628 
L 152.569822 952.978628 
z
" clip-path="url(#p1ff2e9c7dc)" style="fill: #ffc4c4"/>
   </g>
   <g id="patch_62">
    <path d="M 179.561387 994.177255 
L 182.260544 994.177255 
L 182.260544 931.408206 
L 179.561387 931.408206 
z
" clip-path="url(#p1ff2e9c7dc)" style="fill: #ffc4c4"/>
   </g>
   <g id="patch_63">
    <path d="M 206.552952 994.177255 
L 209.252109 994.177255 
L 209.252109 929.77898 
L 206.552952 929.77898 
z
" clip-path="url(#p1ff2e9c7dc)" style="fill: #ffc4c4"/>
   </g>
   <g id="patch_64">
    <path d="M 233.544517 994.177255 
L 236.243674 994.177255 
L 236.243674 948.92638 
L 233.544517 948.92638 
z
" clip-path="url(#p1ff2e9c7dc)" style="fill: #ffc4c4"/>
   </g>
   <g id="patch_65">
    <path d="M 260.536082 994.177255 
L 263.235239 994.177255 
L 263.235239 968.345783 
L 260.536082 968.345783 
z
" clip-path="url(#p1ff2e9c7dc)" style="fill: #ffc4c4"/>
   </g>
   <g id="patch_66">
    <path d="M 287.527648 994.177255 
L 290.226804 994.177255 
L 290.226804 983.521001 
L 287.527648 983.521001 
z
" clip-path="url(#p1ff2e9c7dc)" style="fill: #ffc4c4"/>
   </g>
   <g id="patch_67">
    <path d="M 314.519213 994.177255 
L 317.218369 994.177255 
L 317.218369 989.893819 
L 314.519213 989.893819 
z
" clip-path="url(#p1ff2e9c7dc)" style="fill: #ffc4c4"/>
   </g>
   <g id="patch_68">
    <path d="M 341.510778 994.177255 
L 344.209934 994.177255 
L 344.209934 992.950839 
L 341.510778 992.950839 
z
" clip-path="url(#p1ff2e9c7dc)" style="fill: #ffc4c4"/>
   </g>
   <g id="patch_69">
    <path d="M 101.285848 994.177255 
L 103.985005 994.177255 
L 103.985005 992.662792 
L 101.285848 992.662792 
z
" clip-path="url(#p1ff2e9c7dc)" style="fill: #b25068"/>
   </g>
   <g id="patch_70">
    <path d="M 128.277413 994.177255 
L 130.97657 994.177255 
L 130.97657 978.015184 
L 128.277413 978.015184 
z
" clip-path="url(#p1ff2e9c7dc)" style="fill: #b25068"/>
   </g>
   <g id="patch_71">
    <path d="M 155.268978 994.177255 
L 157.968135 994.177255 
L 157.968135 953.924405 
L 155.268978 953.924405 
z
" clip-path="url(#p1ff2e9c7dc)" style="fill: #b25068"/>
   </g>
   <g id="patch_72">
    <path d="M 182.260544 994.177255 
L 184.9597 994.177255 
L 184.9597 934.993241 
L 182.260544 934.993241 
z
" clip-path="url(#p1ff2e9c7dc)" style="fill: #b25068"/>
   </g>
   <g id="patch_73">
    <path d="M 209.252109 994.177255 
L 211.951265 994.177255 
L 211.951265 931.066055 
L 209.252109 931.066055 
z
" clip-path="url(#p1ff2e9c7dc)" style="fill: #b25068"/>
   </g>
   <g id="patch_74">
    <path d="M 236.243674 994.177255 
L 238.94283 994.177255 
L 238.94283 947.759508 
L 236.243674 947.759508 
z
" clip-path="url(#p1ff2e9c7dc)" style="fill: #b25068"/>
   </g>
   <g id="patch_75">
    <path d="M 263.235239 994.177255 
L 265.934396 994.177255 
L 265.934396 967.167075 
L 263.235239 967.167075 
z
" clip-path="url(#p1ff2e9c7dc)" style="fill: #b25068"/>
   </g>
   <g id="patch_76">
    <path d="M 290.226804 994.177255 
L 292.925961 994.177255 
L 292.925961 982.66846 
L 290.226804 982.66846 
z
" clip-path="url(#p1ff2e9c7dc)" style="fill: #b25068"/>
   </g>
   <g id="patch_77">
    <path d="M 317.218369 994.177255 
L 319.917526 994.177255 
L 319.917526 989.715347 
L 317.218369 989.715347 
z
" clip-path="url(#p1ff2e9c7dc)" style="fill: #b25068"/>
   </g>
   <g id="patch_78">
    <path d="M 344.209934 994.177255 
L 346.909091 994.177255 
L 346.909091 992.975833 
L 344.209934 992.975833 
z
" clip-path="url(#p1ff2e9c7dc)" style="fill: #b25068"/>
   </g>
   <g id="line2d_58">
    <defs>
     <path id="mea3bdc48d3" d="M -3 0.6 
L 3 -0.6 
" style="stroke: #000000"/>
    </defs>
    <g>
     <use xlink:href="#mea3bdc48d3" x="72" y="818.141232" style="stroke: #000000"/>
     <use xlink:href="#mea3bdc48d3" x="360" y="818.141232" style="stroke: #000000"/>
    </g>
   </g>
   <g id="patch_79">
    <path d="M 72 818.141232 
L 72 791.058768 
" style="fill: none; stroke: #808080; stroke-linejoin: miter; stroke-linecap: square"/>
   </g>
   <g id="patch_80">
    <path d="M 360 818.141232 
L 360 791.058768 
" style="fill: none; stroke: #808080; stroke-linejoin: miter; stroke-linecap: square"/>
   </g>
   <g id="patch_81">
    <path d="M 72 791.058768 
L 360 791.058768 
" style="fill: none; stroke: #808080; stroke-linejoin: miter; stroke-linecap: square"/>
   </g>
  </g>
  <g id="axes_3">
   <g id="patch_82">
    <path d="M 72 901.915451 
L 360 901.915451 
L 360 826.084549 
L 72 826.084549 
z
" style="fill: #ffffff"/>
   </g>
   <g id="matplotlib.axis_5">
    <g id="xtick_21">
     <g id="line2d_59">
      <g>
       <use xlink:href="#md81d0f3ea3" x="91.8388" y="901.915451" style="fill: #555555; stroke: #555555; stroke-width: 0.8"/>
      </g>
     </g>
     <g id="text_16">
      <!-- 0.1 -->
      <g style="fill: #555555" transform="translate(83.4988 917.504826)scale(0.12 -0.12)">
       <use xlink:href="#ArialMT-30"/>
       <use xlink:href="#ArialMT-2e" x="55.615234"/>
       <use xlink:href="#ArialMT-31" x="83.398438"/>
      </g>
     </g>
    </g>
    <g id="xtick_22">
     <g id="line2d_60">
      <g>
       <use xlink:href="#md81d0f3ea3" x="118.830366" y="901.915451" style="fill: #555555; stroke: #555555; stroke-width: 0.8"/>
      </g>
     </g>
     <g id="text_17">
      <!-- 0.2 -->
      <g style="fill: #555555" transform="translate(110.490366 917.504826)scale(0.12 -0.12)">
       <use xlink:href="#ArialMT-30"/>
       <use xlink:href="#ArialMT-2e" x="55.615234"/>
       <use xlink:href="#ArialMT-32" x="83.398438"/>
      </g>
     </g>
    </g>
    <g id="xtick_23">
     <g id="line2d_61">
      <g>
       <use xlink:href="#md81d0f3ea3" x="145.821931" y="901.915451" style="fill: #555555; stroke: #555555; stroke-width: 0.8"/>
      </g>
     </g>
     <g id="text_18">
      <!-- 0.3 -->
      <g style="fill: #555555" transform="translate(137.481931 917.504826)scale(0.12 -0.12)">
       <defs>
        <path id="ArialMT-33" d="M 269 1209 
L 831 1284 
Q 928 806 1161 595 
Q 1394 384 1728 384 
Q 2125 384 2398 659 
Q 2672 934 2672 1341 
Q 2672 1728 2419 1979 
Q 2166 2231 1775 2231 
Q 1616 2231 1378 2169 
L 1441 2663 
Q 1497 2656 1531 2656 
Q 1891 2656 2178 2843 
Q 2466 3031 2466 3422 
Q 2466 3731 2256 3934 
Q 2047 4138 1716 4138 
Q 1388 4138 1169 3931 
Q 950 3725 888 3313 
L 325 3413 
Q 428 3978 793 4289 
Q 1159 4600 1703 4600 
Q 2078 4600 2393 4439 
Q 2709 4278 2876 4000 
Q 3044 3722 3044 3409 
Q 3044 3113 2884 2869 
Q 2725 2625 2413 2481 
Q 2819 2388 3044 2092 
Q 3269 1797 3269 1353 
Q 3269 753 2831 336 
Q 2394 -81 1725 -81 
Q 1122 -81 723 278 
Q 325 638 269 1209 
z
" transform="scale(0.015625)"/>
       </defs>
       <use xlink:href="#ArialMT-30"/>
       <use xlink:href="#ArialMT-2e" x="55.615234"/>
       <use xlink:href="#ArialMT-33" x="83.398438"/>
      </g>
     </g>
    </g>
    <g id="xtick_24">
     <g id="line2d_62">
      <g>
       <use xlink:href="#md81d0f3ea3" x="172.813496" y="901.915451" style="fill: #555555; stroke: #555555; stroke-width: 0.8"/>
      </g>
     </g>
     <g id="text_19">
      <!-- 0.4 -->
      <g style="fill: #555555" transform="translate(164.473496 917.504826)scale(0.12 -0.12)">
       <use xlink:href="#ArialMT-30"/>
       <use xlink:href="#ArialMT-2e" x="55.615234"/>
       <use xlink:href="#ArialMT-34" x="83.398438"/>
      </g>
     </g>
    </g>
    <g id="xtick_25">
     <g id="line2d_63">
      <g>
       <use xlink:href="#md81d0f3ea3" x="199.805061" y="901.915451" style="fill: #555555; stroke: #555555; stroke-width: 0.8"/>
      </g>
     </g>
     <g id="text_20">
      <!-- 0.5 -->
      <g style="fill: #555555" transform="translate(191.465061 917.504826)scale(0.12 -0.12)">
       <use xlink:href="#ArialMT-30"/>
       <use xlink:href="#ArialMT-2e" x="55.615234"/>
       <use xlink:href="#ArialMT-35" x="83.398438"/>
      </g>
     </g>
    </g>
    <g id="xtick_26">
     <g id="line2d_64">
      <g>
       <use xlink:href="#md81d0f3ea3" x="226.796626" y="901.915451" style="fill: #555555; stroke: #555555; stroke-width: 0.8"/>
      </g>
     </g>
     <g id="text_21">
      <!-- 0.6 -->
      <g style="fill: #555555" transform="translate(218.456626 917.504826)scale(0.12 -0.12)">
       <use xlink:href="#ArialMT-30"/>
       <use xlink:href="#ArialMT-2e" x="55.615234"/>
       <use xlink:href="#ArialMT-36" x="83.398438"/>
      </g>
     </g>
    </g>
    <g id="xtick_27">
     <g id="line2d_65">
      <g>
       <use xlink:href="#md81d0f3ea3" x="253.788191" y="901.915451" style="fill: #555555; stroke: #555555; stroke-width: 0.8"/>
      </g>
     </g>
     <g id="text_22">
      <!-- 0.7 -->
      <g style="fill: #555555" transform="translate(245.448191 917.504826)scale(0.12 -0.12)">
       <use xlink:href="#ArialMT-30"/>
       <use xlink:href="#ArialMT-2e" x="55.615234"/>
       <use xlink:href="#ArialMT-37" x="83.398438"/>
      </g>
     </g>
    </g>
    <g id="xtick_28">
     <g id="line2d_66">
      <g>
       <use xlink:href="#md81d0f3ea3" x="280.779756" y="901.915451" style="fill: #555555; stroke: #555555; stroke-width: 0.8"/>
      </g>
     </g>
     <g id="text_23">
      <!-- 0.8 -->
      <g style="fill: #555555" transform="translate(272.439756 917.504826)scale(0.12 -0.12)">
       <use xlink:href="#ArialMT-30"/>
       <use xlink:href="#ArialMT-2e" x="55.615234"/>
       <use xlink:href="#ArialMT-38" x="83.398438"/>
      </g>
     </g>
    </g>
    <g id="xtick_29">
     <g id="line2d_67">
      <g>
       <use xlink:href="#md81d0f3ea3" x="307.771321" y="901.915451" style="fill: #555555; stroke: #555555; stroke-width: 0.8"/>
      </g>
     </g>
     <g id="text_24">
      <!-- 0.9 -->
      <g style="fill: #555555" transform="translate(299.431321 917.504826)scale(0.12 -0.12)">
       <defs>
        <path id="ArialMT-39" d="M 350 1059 
L 891 1109 
Q 959 728 1153 556 
Q 1347 384 1650 384 
Q 1909 384 2104 503 
Q 2300 622 2425 820 
Q 2550 1019 2634 1356 
Q 2719 1694 2719 2044 
Q 2719 2081 2716 2156 
Q 2547 1888 2255 1720 
Q 1963 1553 1622 1553 
Q 1053 1553 659 1965 
Q 266 2378 266 3053 
Q 266 3750 677 4175 
Q 1088 4600 1706 4600 
Q 2153 4600 2523 4359 
Q 2894 4119 3086 3673 
Q 3278 3228 3278 2384 
Q 3278 1506 3087 986 
Q 2897 466 2520 194 
Q 2144 -78 1638 -78 
Q 1100 -78 759 220 
Q 419 519 350 1059 
z
M 2653 3081 
Q 2653 3566 2395 3850 
Q 2138 4134 1775 4134 
Q 1400 4134 1122 3828 
Q 844 3522 844 3034 
Q 844 2597 1108 2323 
Q 1372 2050 1759 2050 
Q 2150 2050 2401 2323 
Q 2653 2597 2653 3081 
z
" transform="scale(0.015625)"/>
       </defs>
       <use xlink:href="#ArialMT-30"/>
       <use xlink:href="#ArialMT-2e" x="55.615234"/>
       <use xlink:href="#ArialMT-39" x="83.398438"/>
      </g>
     </g>
    </g>
    <g id="xtick_30">
     <g id="line2d_68">
      <g>
       <use xlink:href="#md81d0f3ea3" x="334.762887" y="901.915451" style="fill: #555555; stroke: #555555; stroke-width: 0.8"/>
      </g>
     </g>
     <g id="text_25">
      <!-- 1.0 -->
      <g style="fill: #555555" transform="translate(326.422887 917.504826)scale(0.12 -0.12)">
       <use xlink:href="#ArialMT-31"/>
       <use xlink:href="#ArialMT-2e" x="55.615234"/>
       <use xlink:href="#ArialMT-30" x="83.398438"/>
      </g>
     </g>
    </g>
    <g id="text_26">
     <!-- Uncertainty Level -->
     <g style="fill: #555555" transform="translate(169.64625 932.479201)scale(0.12 -0.12)">
      <defs>
       <path id="ArialMT-74" d="M 1650 503 
L 1731 6 
Q 1494 -44 1306 -44 
Q 1000 -44 831 53 
Q 663 150 594 308 
Q 525 466 525 972 
L 525 2881 
L 113 2881 
L 113 3319 
L 525 3319 
L 525 4141 
L 1084 4478 
L 1084 3319 
L 1650 3319 
L 1650 2881 
L 1084 2881 
L 1084 941 
Q 1084 700 1114 631 
Q 1144 563 1211 522 
Q 1278 481 1403 481 
Q 1497 481 1650 503 
z
" transform="scale(0.015625)"/>
       <path id="ArialMT-79" d="M 397 -1278 
L 334 -750 
Q 519 -800 656 -800 
Q 844 -800 956 -737 
Q 1069 -675 1141 -563 
Q 1194 -478 1313 -144 
Q 1328 -97 1363 -6 
L 103 3319 
L 709 3319 
L 1400 1397 
Q 1534 1031 1641 628 
Q 1738 1016 1872 1384 
L 2581 3319 
L 3144 3319 
L 1881 -56 
Q 1678 -603 1566 -809 
Q 1416 -1088 1222 -1217 
Q 1028 -1347 759 -1347 
Q 597 -1347 397 -1278 
z
" transform="scale(0.015625)"/>
       <path id="ArialMT-20" transform="scale(0.015625)"/>
       <path id="ArialMT-76" d="M 1344 0 
L 81 3319 
L 675 3319 
L 1388 1331 
Q 1503 1009 1600 663 
Q 1675 925 1809 1294 
L 2547 3319 
L 3125 3319 
L 1869 0 
L 1344 0 
z
" transform="scale(0.015625)"/>
      </defs>
      <use xlink:href="#ArialMT-55"/>
      <use xlink:href="#ArialMT-6e" x="72.216797"/>
      <use xlink:href="#ArialMT-63" x="127.832031"/>
      <use xlink:href="#ArialMT-65" x="177.832031"/>
      <use xlink:href="#ArialMT-72" x="233.447266"/>
      <use xlink:href="#ArialMT-74" x="266.748047"/>
      <use xlink:href="#ArialMT-61" x="294.53125"/>
      <use xlink:href="#ArialMT-69" x="350.146484"/>
      <use xlink:href="#ArialMT-6e" x="372.363281"/>
      <use xlink:href="#ArialMT-74" x="427.978516"/>
      <use xlink:href="#ArialMT-79" x="455.761719"/>
      <use xlink:href="#ArialMT-20" x="505.761719"/>
      <use xlink:href="#ArialMT-4c" x="533.544922"/>
      <use xlink:href="#ArialMT-65" x="589.160156"/>
      <use xlink:href="#ArialMT-76" x="644.775391"/>
      <use xlink:href="#ArialMT-65" x="694.775391"/>
      <use xlink:href="#ArialMT-6c" x="750.390625"/>
     </g>
    </g>
   </g>
   <g id="matplotlib.axis_6">
    <g id="ytick_7">
     <g id="line2d_69">
      <g>
       <use xlink:href="#mf579b93b2f" x="72" y="901.915451" style="fill: #555555; stroke: #555555; stroke-width: 0.8"/>
      </g>
     </g>
     <g id="text_27">
      <!-- 0.0 -->
      <g style="fill: #555555" transform="translate(48.32 906.210138)scale(0.12 -0.12)">
       <use xlink:href="#ArialMT-30"/>
       <use xlink:href="#ArialMT-2e" x="55.615234"/>
       <use xlink:href="#ArialMT-30" x="83.398438"/>
      </g>
     </g>
    </g>
    <g id="ytick_8">
     <g id="line2d_70">
      <g>
       <use xlink:href="#mf579b93b2f" x="72" y="874.832986" style="fill: #555555; stroke: #555555; stroke-width: 0.8"/>
      </g>
     </g>
     <g id="text_28">
      <!-- 0.1 -->
      <g style="fill: #555555" transform="translate(48.32 879.127673)scale(0.12 -0.12)">
       <use xlink:href="#ArialMT-30"/>
       <use xlink:href="#ArialMT-2e" x="55.615234"/>
       <use xlink:href="#ArialMT-31" x="83.398438"/>
      </g>
     </g>
    </g>
    <g id="ytick_9">
     <g id="line2d_71">
      <g>
       <use xlink:href="#mf579b93b2f" x="72" y="847.750521" style="fill: #555555; stroke: #555555; stroke-width: 0.8"/>
      </g>
     </g>
     <g id="text_29">
      <!-- 0.2 -->
      <g style="fill: #555555" transform="translate(48.32 852.045209)scale(0.12 -0.12)">
       <use xlink:href="#ArialMT-30"/>
       <use xlink:href="#ArialMT-2e" x="55.615234"/>
       <use xlink:href="#ArialMT-32" x="83.398438"/>
      </g>
     </g>
    </g>
    <g id="text_30">
     <!-- Sample Density -->
     <g style="fill: #555555" transform="translate(46.434375 890.849757)rotate(-90)scale(0.12 -0.12)">
      <defs>
       <path id="ArialMT-6d" d="M 422 0 
L 422 3319 
L 925 3319 
L 925 2853 
Q 1081 3097 1340 3245 
Q 1600 3394 1931 3394 
Q 2300 3394 2536 3241 
Q 2772 3088 2869 2813 
Q 3263 3394 3894 3394 
Q 4388 3394 4653 3120 
Q 4919 2847 4919 2278 
L 4919 0 
L 4359 0 
L 4359 2091 
Q 4359 2428 4304 2576 
Q 4250 2725 4106 2815 
Q 3963 2906 3769 2906 
Q 3419 2906 3187 2673 
Q 2956 2441 2956 1928 
L 2956 0 
L 2394 0 
L 2394 2156 
Q 2394 2531 2256 2718 
Q 2119 2906 1806 2906 
Q 1569 2906 1367 2781 
Q 1166 2656 1075 2415 
Q 984 2175 984 1722 
L 984 0 
L 422 0 
z
" transform="scale(0.015625)"/>
      </defs>
      <use xlink:href="#ArialMT-53"/>
      <use xlink:href="#ArialMT-61" x="66.699219"/>
      <use xlink:href="#ArialMT-6d" x="122.314453"/>
      <use xlink:href="#ArialMT-70" x="205.615234"/>
      <use xlink:href="#ArialMT-6c" x="261.230469"/>
      <use xlink:href="#ArialMT-65" x="283.447266"/>
      <use xlink:href="#ArialMT-20" x="339.0625"/>
      <use xlink:href="#ArialMT-44" x="366.845703"/>
      <use xlink:href="#ArialMT-65" x="439.0625"/>
      <use xlink:href="#ArialMT-6e" x="494.677734"/>
      <use xlink:href="#ArialMT-73" x="550.292969"/>
      <use xlink:href="#ArialMT-69" x="600.292969"/>
      <use xlink:href="#ArialMT-74" x="622.509766"/>
      <use xlink:href="#ArialMT-79" x="650.292969"/>
     </g>
    </g>
   </g>
   <g id="patch_83">
    <path d="M 85.090909 901.915451 
L 87.790066 901.915451 
L 87.790066 709.915451 
L 85.090909 709.915451 
z
" clip-path="url(#p91c3985cbc)" style="fill: #168aad"/>
   </g>
   <g id="patch_84">
    <path d="M 112.082474 901.915451 
L 114.781631 901.915451 
L 114.781631 878.989205 
L 112.082474 878.989205 
z
" clip-path="url(#p91c3985cbc)" style="fill: #168aad"/>
   </g>
   <g id="patch_85">
    <path d="M 139.074039 901.915451 
L 141.773196 901.915451 
L 141.773196 883.468141 
L 139.074039 883.468141 
z
" clip-path="url(#p91c3985cbc)" style="fill: #168aad"/>
   </g>
   <g id="patch_86">
    <path d="M 166.065604 901.915451 
L 168.764761 901.915451 
L 168.764761 884.657083 
L 166.065604 884.657083 
z
" clip-path="url(#p91c3985cbc)" style="fill: #168aad"/>
   </g>
   <g id="patch_87">
    <path d="M 193.05717 901.915451 
L 195.756326 901.915451 
L 195.756326 892.906578 
L 193.05717 892.906578 
z
" clip-path="url(#p91c3985cbc)" style="fill: #168aad"/>
   </g>
   <g id="patch_88">
    <path d="M 220.048735 901.915451 
L 222.747891 901.915451 
L 222.747891 896.398246 
L 220.048735 896.398246 
z
" clip-path="url(#p91c3985cbc)" style="fill: #168aad"/>
   </g>
   <g id="patch_89">
    <path d="M 247.0403 901.915451 
L 249.739456 901.915451 
L 249.739456 898.74621 
L 247.0403 898.74621 
z
" clip-path="url(#p91c3985cbc)" style="fill: #168aad"/>
   </g>
   <g id="patch_90">
    <path d="M 274.031865 901.915451 
L 276.731022 901.915451 
L 276.731022 900.260662 
L 274.031865 900.260662 
z
" clip-path="url(#p91c3985cbc)" style="fill: #168aad"/>
   </g>
   <g id="patch_91">
    <path d="M 301.02343 901.915451 
L 303.722587 901.915451 
L 303.722587 901.248029 
L 301.02343 901.248029 
z
" clip-path="url(#p91c3985cbc)" style="fill: #168aad"/>
   </g>
   <g id="patch_92">
    <path d="M 328.014995 901.915451 
L 330.714152 901.915451 
L 330.714152 901.740253 
L 328.014995 901.740253 
z
" clip-path="url(#p91c3985cbc)" style="fill: #168aad"/>
   </g>
   <g id="patch_93">
    <path d="M 87.790066 901.915451 
L 90.489222 901.915451 
L 90.489222 900.647067 
L 87.790066 900.647067 
z
" clip-path="url(#p91c3985cbc)" style="fill: #498467"/>
   </g>
   <g id="patch_94">
    <path d="M 114.781631 901.915451 
L 117.480787 901.915451 
L 117.480787 898.583253 
L 114.781631 898.583253 
z
" clip-path="url(#p91c3985cbc)" style="fill: #498467"/>
   </g>
   <g id="patch_95">
    <path d="M 141.773196 901.915451 
L 144.472352 901.915451 
L 144.472352 893.210058 
L 141.773196 893.210058 
z
" clip-path="url(#p91c3985cbc)" style="fill: #498467"/>
   </g>
   <g id="patch_96">
    <path d="M 168.764761 901.915451 
L 171.463918 901.915451 
L 171.463918 882.080588 
L 168.764761 882.080588 
z
" clip-path="url(#p91c3985cbc)" style="fill: #498467"/>
   </g>
   <g id="patch_97">
    <path d="M 195.756326 901.915451 
L 198.455483 901.915451 
L 198.455483 865.035275 
L 195.756326 865.035275 
z
" clip-path="url(#p91c3985cbc)" style="fill: #498467"/>
   </g>
   <g id="patch_98">
    <path d="M 222.747891 901.915451 
L 225.447048 901.915451 
L 225.447048 840.22291 
L 222.747891 840.22291 
z
" clip-path="url(#p91c3985cbc)" style="fill: #498467"/>
   </g>
   <g id="patch_99">
    <path d="M 249.739456 901.915451 
L 252.438613 901.915451 
L 252.438613 833.975909 
L 249.739456 833.975909 
z
" clip-path="url(#p91c3985cbc)" style="fill: #498467"/>
   </g>
   <g id="patch_100">
    <path d="M 276.731022 901.915451 
L 279.430178 901.915451 
L 279.430178 851.968015 
L 276.731022 851.968015 
z
" clip-path="url(#p91c3985cbc)" style="fill: #498467"/>
   </g>
   <g id="patch_101">
    <path d="M 303.722587 901.915451 
L 306.421743 901.915451 
L 306.421743 883.045733 
L 303.722587 883.045733 
z
" clip-path="url(#p91c3985cbc)" style="fill: #498467"/>
   </g>
   <g id="patch_102">
    <path d="M 330.714152 901.915451 
L 333.413308 901.915451 
L 333.413308 899.561053 
L 330.714152 899.561053 
z
" clip-path="url(#p91c3985cbc)" style="fill: #498467"/>
   </g>
   <g id="patch_103">
    <path d="M 90.489222 901.915451 
L 93.188379 901.915451 
L 93.188379 901.524411 
L 90.489222 901.524411 
z
" clip-path="url(#p91c3985cbc)" style="fill: #3a4f7a"/>
   </g>
   <g id="patch_104">
    <path d="M 117.480787 901.915451 
L 120.179944 901.915451 
L 120.179944 891.971807 
L 117.480787 891.971807 
z
" clip-path="url(#p91c3985cbc)" style="fill: #3a4f7a"/>
   </g>
   <g id="patch_105">
    <path d="M 144.472352 901.915451 
L 147.171509 901.915451 
L 147.171509 846.792328 
L 144.472352 846.792328 
z
" clip-path="url(#p91c3985cbc)" style="fill: #3a4f7a"/>
   </g>
   <g id="patch_106">
    <path d="M 171.463918 901.915451 
L 174.163074 901.915451 
L 174.163074 806.620976 
L 171.463918 806.620976 
z
" clip-path="url(#p91c3985cbc)" style="fill: #3a4f7a"/>
   </g>
   <g id="patch_107">
    <path d="M 198.455483 901.915451 
L 201.154639 901.915451 
L 201.154639 830.97571 
L 198.455483 830.97571 
z
" clip-path="url(#p91c3985cbc)" style="fill: #3a4f7a"/>
   </g>
   <g id="patch_108">
    <path d="M 225.447048 901.915451 
L 228.146204 901.915451 
L 228.146204 873.373599 
L 225.447048 873.373599 
z
" clip-path="url(#p91c3985cbc)" style="fill: #3a4f7a"/>
   </g>
   <g id="patch_109">
    <path d="M 252.438613 901.915451 
L 255.137769 901.915451 
L 255.137769 893.851808 
L 252.438613 893.851808 
z
" clip-path="url(#p91c3985cbc)" style="fill: #3a4f7a"/>
   </g>
   <g id="patch_110">
    <path d="M 279.430178 901.915451 
L 282.129335 901.915451 
L 282.129335 899.897541 
L 279.430178 899.897541 
z
" clip-path="url(#p91c3985cbc)" style="fill: #3a4f7a"/>
   </g>
   <g id="patch_111">
    <path d="M 306.421743 901.915451 
L 309.1209 901.915451 
L 309.1209 901.478004 
L 306.421743 901.478004 
z
" clip-path="url(#p91c3985cbc)" style="fill: #3a4f7a"/>
   </g>
   <g id="patch_112">
    <path d="M 333.413308 901.915451 
L 336.112465 901.915451 
L 336.112465 901.843678 
L 333.413308 901.843678 
z
" clip-path="url(#p91c3985cbc)" style="fill: #3a4f7a"/>
   </g>
   <g id="patch_113">
    <path d="M 93.188379 901.915451 
L 95.887535 901.915451 
L 95.887535 892.249713 
L 93.188379 892.249713 
z
" clip-path="url(#p91c3985cbc)" style="fill: #b08bbb"/>
   </g>
   <g id="patch_114">
    <path d="M 120.179944 901.915451 
L 122.8791 901.915451 
L 122.8791 841.6759 
L 120.179944 841.6759 
z
" clip-path="url(#p91c3985cbc)" style="fill: #b08bbb"/>
   </g>
   <g id="patch_115">
    <path d="M 147.171509 901.915451 
L 149.870665 901.915451 
L 149.870665 814.033182 
L 147.171509 814.033182 
z
" clip-path="url(#p91c3985cbc)" style="fill: #b08bbb"/>
   </g>
   <g id="patch_116">
    <path d="M 174.163074 901.915451 
L 176.862231 901.915451 
L 176.862231 844.526381 
L 174.163074 844.526381 
z
" clip-path="url(#p91c3985cbc)" style="fill: #b08bbb"/>
   </g>
   <g id="patch_117">
    <path d="M 201.154639 901.915451 
L 203.853796 901.915451 
L 203.853796 869.631566 
L 201.154639 869.631566 
z
" clip-path="url(#p91c3985cbc)" style="fill: #b08bbb"/>
   </g>
   <g id="patch_118">
    <path d="M 228.146204 901.915451 
L 230.845361 901.915451 
L 230.845361 886.83103 
L 228.146204 886.83103 
z
" clip-path="url(#p91c3985cbc)" style="fill: #b08bbb"/>
   </g>
   <g id="patch_119">
    <path d="M 255.137769 901.915451 
L 257.836926 901.915451 
L 257.836926 896.03607 
L 255.137769 896.03607 
z
" clip-path="url(#p91c3985cbc)" style="fill: #b08bbb"/>
   </g>
   <g id="patch_120">
    <path d="M 282.129335 901.915451 
L 284.828491 901.915451 
L 284.828491 900.051434 
L 282.129335 900.051434 
z
" clip-path="url(#p91c3985cbc)" style="fill: #b08bbb"/>
   </g>
   <g id="patch_121">
    <path d="M 309.1209 901.915451 
L 311.820056 901.915451 
L 311.820056 901.457946 
L 309.1209 901.457946 
z
" clip-path="url(#p91c3985cbc)" style="fill: #b08bbb"/>
   </g>
   <g id="patch_122">
    <path d="M 336.112465 901.915451 
L 338.811621 901.915451 
L 338.811621 901.836637 
L 336.112465 901.836637 
z
" clip-path="url(#p91c3985cbc)" style="fill: #b08bbb"/>
   </g>
   <g id="patch_123">
    <path d="M 95.887535 901.915451 
L 98.586692 901.915451 
L 98.586692 900.407767 
L 95.887535 900.407767 
z
" clip-path="url(#p91c3985cbc)" style="fill: #8ecae6"/>
   </g>
   <g id="patch_124">
    <path d="M 122.8791 901.915451 
L 125.578257 901.915451 
L 125.578257 885.539423 
L 122.8791 885.539423 
z
" clip-path="url(#p91c3985cbc)" style="fill: #8ecae6"/>
   </g>
   <g id="patch_125">
    <path d="M 149.870665 901.915451 
L 152.569822 901.915451 
L 152.569822 852.957913 
L 149.870665 852.957913 
z
" clip-path="url(#p91c3985cbc)" style="fill: #8ecae6"/>
   </g>
   <g id="patch_126">
    <path d="M 176.862231 901.915451 
L 179.561387 901.915451 
L 179.561387 827.479127 
L 176.862231 827.479127 
z
" clip-path="url(#p91c3985cbc)" style="fill: #8ecae6"/>
   </g>
   <g id="patch_127">
    <path d="M 203.853796 901.915451 
L 206.552952 901.915451 
L 206.552952 832.907246 
L 203.853796 832.907246 
z
" clip-path="url(#p91c3985cbc)" style="fill: #8ecae6"/>
   </g>
   <g id="patch_128">
    <path d="M 230.845361 901.915451 
L 233.544517 901.915451 
L 233.544517 861.026192 
L 230.845361 861.026192 
z
" clip-path="url(#p91c3985cbc)" style="fill: #8ecae6"/>
   </g>
   <g id="patch_129">
    <path d="M 257.836926 901.915451 
L 260.536082 901.915451 
L 260.536082 886.492656 
L 257.836926 886.492656 
z
" clip-path="url(#p91c3985cbc)" style="fill: #8ecae6"/>
   </g>
   <g id="patch_130">
    <path d="M 284.828491 901.915451 
L 287.527648 901.915451 
L 287.527648 898.269118 
L 284.828491 898.269118 
z
" clip-path="url(#p91c3985cbc)" style="fill: #8ecae6"/>
   </g>
   <g id="patch_131">
    <path d="M 311.820056 901.915451 
L 314.519213 901.915451 
L 314.519213 901.383298 
L 311.820056 901.383298 
z
" clip-path="url(#p91c3985cbc)" style="fill: #8ecae6"/>
   </g>
   <g id="patch_132">
    <path d="M 338.811621 901.915451 
L 341.510778 901.915451 
L 341.510778 901.86712 
L 338.811621 901.86712 
z
" clip-path="url(#p91c3985cbc)" style="fill: #8ecae6"/>
   </g>
   <g id="patch_133">
    <path d="M 98.586692 901.915451 
L 101.285848 901.915451 
L 101.285848 900.732255 
L 98.586692 900.732255 
z
" clip-path="url(#p91c3985cbc)" style="fill: #ffc4c4"/>
   </g>
   <g id="patch_134">
    <path d="M 125.578257 901.915451 
L 128.277413 901.915451 
L 128.277413 887.888398 
L 125.578257 887.888398 
z
" clip-path="url(#p91c3985cbc)" style="fill: #ffc4c4"/>
   </g>
   <g id="patch_135">
    <path d="M 152.569822 901.915451 
L 155.268978 901.915451 
L 155.268978 860.716825 
L 152.569822 860.716825 
z
" clip-path="url(#p91c3985cbc)" style="fill: #ffc4c4"/>
   </g>
   <g id="patch_136">
    <path d="M 179.561387 901.915451 
L 182.260544 901.915451 
L 182.260544 839.146402 
L 179.561387 839.146402 
z
" clip-path="url(#p91c3985cbc)" style="fill: #ffc4c4"/>
   </g>
   <g id="patch_137">
    <path d="M 206.552952 901.915451 
L 209.252109 901.915451 
L 209.252109 837.517176 
L 206.552952 837.517176 
z
" clip-path="url(#p91c3985cbc)" style="fill: #ffc4c4"/>
   </g>
   <g id="patch_138">
    <path d="M 233.544517 901.915451 
L 236.243674 901.915451 
L 236.243674 856.664577 
L 233.544517 856.664577 
z
" clip-path="url(#p91c3985cbc)" style="fill: #ffc4c4"/>
   </g>
   <g id="patch_139">
    <path d="M 260.536082 901.915451 
L 263.235239 901.915451 
L 263.235239 876.083979 
L 260.536082 876.083979 
z
" clip-path="url(#p91c3985cbc)" style="fill: #ffc4c4"/>
   </g>
   <g id="patch_140">
    <path d="M 287.527648 901.915451 
L 290.226804 901.915451 
L 290.226804 891.259197 
L 287.527648 891.259197 
z
" clip-path="url(#p91c3985cbc)" style="fill: #ffc4c4"/>
   </g>
   <g id="patch_141">
    <path d="M 314.519213 901.915451 
L 317.218369 901.915451 
L 317.218369 897.632015 
L 314.519213 897.632015 
z
" clip-path="url(#p91c3985cbc)" style="fill: #ffc4c4"/>
   </g>
   <g id="patch_142">
    <path d="M 341.510778 901.915451 
L 344.209934 901.915451 
L 344.209934 900.689035 
L 341.510778 900.689035 
z
" clip-path="url(#p91c3985cbc)" style="fill: #ffc4c4"/>
   </g>
   <g id="patch_143">
    <path d="M 101.285848 901.915451 
L 103.985005 901.915451 
L 103.985005 900.400988 
L 101.285848 900.400988 
z
" clip-path="url(#p91c3985cbc)" style="fill: #b25068"/>
   </g>
   <g id="patch_144">
    <path d="M 128.277413 901.915451 
L 130.97657 901.915451 
L 130.97657 885.75338 
L 128.277413 885.75338 
z
" clip-path="url(#p91c3985cbc)" style="fill: #b25068"/>
   </g>
   <g id="patch_145">
    <path d="M 155.268978 901.915451 
L 157.968135 901.915451 
L 157.968135 861.662601 
L 155.268978 861.662601 
z
" clip-path="url(#p91c3985cbc)" style="fill: #b25068"/>
   </g>
   <g id="patch_146">
    <path d="M 182.260544 901.915451 
L 184.9597 901.915451 
L 184.9597 842.731437 
L 182.260544 842.731437 
z
" clip-path="url(#p91c3985cbc)" style="fill: #b25068"/>
   </g>
   <g id="patch_147">
    <path d="M 209.252109 901.915451 
L 211.951265 901.915451 
L 211.951265 838.804251 
L 209.252109 838.804251 
z
" clip-path="url(#p91c3985cbc)" style="fill: #b25068"/>
   </g>
   <g id="patch_148">
    <path d="M 236.243674 901.915451 
L 238.94283 901.915451 
L 238.94283 855.497704 
L 236.243674 855.497704 
z
" clip-path="url(#p91c3985cbc)" style="fill: #b25068"/>
   </g>
   <g id="patch_149">
    <path d="M 263.235239 901.915451 
L 265.934396 901.915451 
L 265.934396 874.905271 
L 263.235239 874.905271 
z
" clip-path="url(#p91c3985cbc)" style="fill: #b25068"/>
   </g>
   <g id="patch_150">
    <path d="M 290.226804 901.915451 
L 292.925961 901.915451 
L 292.925961 890.406656 
L 290.226804 890.406656 
z
" clip-path="url(#p91c3985cbc)" style="fill: #b25068"/>
   </g>
   <g id="patch_151">
    <path d="M 317.218369 901.915451 
L 319.917526 901.915451 
L 319.917526 897.453543 
L 317.218369 897.453543 
z
" clip-path="url(#p91c3985cbc)" style="fill: #b25068"/>
   </g>
   <g id="patch_152">
    <path d="M 344.209934 901.915451 
L 346.909091 901.915451 
L 346.909091 900.714029 
L 344.209934 900.714029 
z
" clip-path="url(#p91c3985cbc)" style="fill: #b25068"/>
   </g>
   <g id="line2d_72">
    <g>
     <use xlink:href="#mea3bdc48d3" x="72" y="826.084549" style="stroke: #000000"/>
     <use xlink:href="#mea3bdc48d3" x="360" y="826.084549" style="stroke: #000000"/>
    </g>
   </g>
   <g id="patch_153">
    <path d="M 72 901.915451 
L 72 826.084549 
" style="fill: none; stroke: #808080; stroke-linejoin: miter; stroke-linecap: square"/>
   </g>
   <g id="patch_154">
    <path d="M 360 901.915451 
L 360 826.084549 
" style="fill: none; stroke: #808080; stroke-linejoin: miter; stroke-linecap: square"/>
   </g>
   <g id="patch_155">
    <path d="M 72 901.915451 
L 360 901.915451 
" style="fill: none; stroke: #808080; stroke-linejoin: miter; stroke-linecap: square"/>
   </g>
  </g>
 </g>
 <defs>
  <clipPath id="p8f51cd0e9b">
   <rect x="72" y="574.2" width="288" height="201.6"/>
  </clipPath>
  <clipPath id="p1ff2e9c7dc">
   <rect x="72" y="791.058768" width="288" height="27.082465"/>
  </clipPath>
  <clipPath id="p91c3985cbc">
   <rect x="72" y="826.084549" width="288" height="75.830902"/>
  </clipPath>
 </defs>
</svg>
